<svg width="36" height="36" viewBox="0 0 36 36" fill="none" xmlns="http://www.w3.org/2000/svg">
<rect x="0.5" y="0.5" width="35" height="35" rx="5.5" fill="#FBF6F1"/>
<rect x="0.5" y="0.5" width="35" height="35" rx="5.5" stroke="#C6C5C3"/>
<path d="M25.8947 6.05347C25.8947 5.93316 9.76981 6.05347 9.76981 6.05347C9.76981 6.05347 8 6.05347 8 9.02712V26.869C8 26.869 9.0197 26.901 9.76981 26.4725C10.5413 26.0319 11.343 24.9695 11.343 24.0936V18.4497C11.343 17.5378 11.2298 17.5516 12.1296 17.5516H15.4725C16.7509 17.5516 17.6356 16.1171 17.6356 14.7762C17.6356 14.7163 12.1296 14.5779 12.1296 14.5779C11.3197 14.5779 11.343 14.6198 11.343 13.785V10.6131C11.343 9.01012 11.1385 9.02712 12.7195 9.02712H23.535C24.8651 9.02712 25.8947 7.3944 25.8947 6.05347Z" fill="#1A1E22"/>
<path d="M25.8948 19.6183C25.8948 19.4988 18.1612 19.6183 18.1612 19.6183C18.1612 19.6183 16.4211 19.6183 16.4211 22.5714V29.9995C16.4211 29.9995 17.4237 30.0312 18.1612 29.6057C18.9197 29.1681 19.7079 28.1131 19.7079 27.2432V24.1464C19.7079 22.5545 19.5069 22.5714 21.0613 22.5714C25.214 22.5714 22.7681 22.5714 23.5747 22.5714C24.8825 22.5714 25.8948 20.95 25.8948 19.6183Z" fill="#EA5A09"/>
<path d="M28 13.4394C28 13.3203 22.2566 13.3043 21.9868 13.3043C20.3024 13.3043 19.177 16.1715 19.7142 16.3823C20.015 16.5004 22.1664 16.3823 23.0981 16.3823C27.3096 16.3823 24.829 16.3823 25.6471 16.3823C26.9734 16.3823 28 14.7664 28 13.4394Z" fill="#EA5A09"/>
</svg>
