<svg width="25" height="24" viewBox="0 0 25 24" fill="none" xmlns="http://www.w3.org/2000/svg">
<path d="M20.5306 7.71938L15.2806 2.46938C15.2109 2.39975 15.1282 2.34454 15.0371 2.3069C14.9461 2.26926 14.8485 2.24992 14.75 2.25H5.75C5.35218 2.25 4.97064 2.40804 4.68934 2.68934C4.40804 2.97064 4.25 3.35218 4.25 3.75V10.875C4.25 10.9745 4.28951 11.0698 4.35984 11.1402C4.43016 11.2105 4.52554 11.25 4.625 11.25H15.875C15.9745 11.25 16.0698 11.2895 16.1402 11.3598C16.2105 11.4302 16.25 11.5255 16.25 11.625V21.375C16.25 21.4745 16.2895 21.5698 16.3598 21.6402C16.4302 21.7105 16.5255 21.75 16.625 21.75H19.25C19.6478 21.75 20.0294 21.592 20.3107 21.3107C20.592 21.0294 20.75 20.6478 20.75 20.25V8.25C20.7501 8.15148 20.7307 8.05391 20.6931 7.96286C20.6555 7.87182 20.6003 7.78908 20.5306 7.71938ZM14.75 8.25V4.125L18.875 8.25H14.75Z" fill="#52525B"/>
<path d="M6.3435 21.046C5.91417 21.046 5.5385 20.954 5.2165 20.77C4.8945 20.5783 4.62617 20.3292 4.4115 20.0225C4.19683 19.7158 4.03583 19.3785 3.9285 19.0105C3.82117 18.6348 3.7675 18.2668 3.7675 17.9065C3.7675 17.4848 3.84033 17.0823 3.986 16.699C4.13167 16.308 4.33483 15.963 4.5955 15.664C4.86383 15.365 5.17817 15.1312 5.5385 14.9625C5.89883 14.7862 6.29367 14.698 6.723 14.698C7.01433 14.698 7.29417 14.7363 7.5625 14.813C7.8385 14.8897 8.08767 15.0162 8.31 15.1925C8.54 15.3612 8.724 15.595 8.862 15.894C8.885 15.9323 8.90033 15.9707 8.908 16.009C8.92333 16.0473 8.931 16.0895 8.931 16.1355C8.931 16.2428 8.8965 16.3387 8.8275 16.423C8.76617 16.5073 8.68567 16.5725 8.586 16.6185C8.494 16.6645 8.39817 16.6875 8.2985 16.6875C8.19883 16.6875 8.1145 16.6645 8.0455 16.6185C7.9765 16.5648 7.9075 16.4767 7.8385 16.354C7.70817 16.147 7.54333 16.0052 7.344 15.9285C7.14467 15.8518 6.953 15.8135 6.769 15.8135C6.585 15.8135 6.39333 15.8595 6.194 15.9515C6.00233 16.0435 5.82217 16.1777 5.6535 16.354C5.4925 16.5303 5.36217 16.7527 5.2625 17.021C5.16283 17.2817 5.113 17.5845 5.113 17.9295C5.113 18.2132 5.159 18.5083 5.251 18.815C5.35067 19.114 5.49633 19.367 5.688 19.574C5.87967 19.781 6.125 19.8883 6.424 19.896C6.73833 19.896 7.02583 19.8002 7.2865 19.6085C7.54717 19.4092 7.781 19.1945 7.988 18.9645C8.04167 18.9032 8.09533 18.861 8.149 18.838C8.20267 18.8073 8.26017 18.792 8.3215 18.792C8.42117 18.792 8.517 18.8227 8.609 18.884C8.70867 18.9453 8.78917 19.022 8.8505 19.114C8.91183 19.1983 8.9425 19.2942 8.9425 19.4015C8.9425 19.4552 8.93483 19.5127 8.9195 19.574C8.90417 19.6277 8.862 19.689 8.793 19.758C8.47867 20.126 8.103 20.4327 7.666 20.678C7.23667 20.9233 6.79583 21.046 6.3435 21.046ZM9.56745 15.5375C9.54445 15.4685 9.52912 15.4148 9.52145 15.3765C9.51379 15.3382 9.50995 15.2998 9.50995 15.2615C9.50995 15.1235 9.57129 15.0047 9.69395 14.905C9.82429 14.7977 9.97762 14.744 10.154 14.744C10.315 14.744 10.4491 14.7785 10.5565 14.8475C10.6638 14.9165 10.7328 15.0162 10.7635 15.1465C10.8785 15.4915 10.9896 15.8288 11.097 16.1585C11.212 16.4882 11.327 16.8217 11.442 17.159C11.5646 17.4963 11.6835 17.8452 11.7985 18.2055C11.9135 18.5582 12.0285 18.93 12.1435 19.321C12.3045 18.8993 12.454 18.5083 12.592 18.148C12.7376 17.7877 12.8756 17.4427 13.006 17.113C13.1363 16.7833 13.2743 16.4537 13.42 16.124C13.5656 15.7943 13.7266 15.457 13.903 15.112C13.9566 14.997 14.0256 14.9127 14.11 14.859C14.202 14.7977 14.3016 14.767 14.409 14.767C14.5163 14.767 14.6236 14.7938 14.731 14.8475C14.8383 14.8935 14.9303 14.9587 15.007 15.043C15.0836 15.1273 15.122 15.2193 15.122 15.319C15.122 15.365 15.1105 15.4225 15.0875 15.4915C15.0721 15.5605 15.0338 15.6525 14.9725 15.7675C14.8805 15.9438 14.754 16.2045 14.593 16.5495C14.4396 16.8868 14.2671 17.2702 14.0755 17.6995C13.8915 18.1212 13.7075 18.5428 13.5235 18.9645C13.3471 19.3785 13.1861 19.7542 13.0405 20.0915C12.9025 20.4212 12.8028 20.6665 12.7415 20.8275C12.6955 20.9348 12.615 21.0153 12.5 21.069C12.385 21.1303 12.247 21.161 12.086 21.161C11.9173 21.161 11.764 21.1188 11.626 21.0345C11.4956 20.9578 11.4036 20.839 11.35 20.678C11.235 20.2487 11.1046 19.8232 10.959 19.4015C10.8133 18.9722 10.66 18.5428 10.499 18.1135C10.338 17.6765 10.177 17.2433 10.016 16.814C9.86262 16.3847 9.71312 15.9592 9.56745 15.5375Z" fill="#52525B"/>
</svg>
