<svg width="20" height="20" viewBox="0 0 20 20" fill="none" xmlns="http://www.w3.org/2000/svg">
<path d="M16.4671 3.06628L6.29135 1.26941C5.96492 1.21197 5.62903 1.28652 5.35755 1.47669C5.08608 1.66685 4.90124 1.95705 4.8437 2.28347L2.51948 15.4866C2.49105 15.6483 2.49478 15.8141 2.53044 15.9744C2.5661 16.1347 2.633 16.2864 2.72732 16.4209C2.82164 16.5553 2.94153 16.6698 3.08013 16.7579C3.21873 16.846 3.37334 16.9059 3.5351 16.9343L13.7109 18.7311C13.8727 18.7597 14.0385 18.756 14.1989 18.7204C14.3593 18.6848 14.5111 18.6179 14.6457 18.5236C14.7802 18.4293 14.8948 18.3093 14.9829 18.1707C15.0711 18.032 15.131 17.8773 15.1593 17.7155L17.4835 4.51238C17.5405 4.18584 17.4654 3.85005 17.2748 3.57886C17.0842 3.30768 16.7937 3.1233 16.4671 3.06628ZM10.5859 10.278C10.5604 10.4226 10.4848 10.5536 10.3724 10.648C10.2599 10.7424 10.1179 10.7943 9.97104 10.7944C9.93438 10.7944 9.89779 10.7913 9.86167 10.785L6.61948 10.2124C6.4654 10.1745 6.3315 10.0794 6.24494 9.9464C6.15838 9.81341 6.12564 9.65248 6.15337 9.49625C6.1811 9.34001 6.26722 9.20017 6.39425 9.10509C6.52129 9.01001 6.67973 8.96681 6.83745 8.98425L10.0781 9.55378C10.159 9.56794 10.2363 9.59791 10.3057 9.64198C10.375 9.68605 10.435 9.74335 10.4821 9.81062C10.5293 9.87788 10.5627 9.95378 10.5805 10.034C10.5983 10.1142 10.6002 10.1971 10.5859 10.278ZM14.2578 8.38894C14.2323 8.53339 14.1568 8.66428 14.0445 8.75869C13.9323 8.85309 13.7904 8.90501 13.6437 8.90535C13.6067 8.90542 13.5699 8.90202 13.5335 8.89519L7.04917 7.75066C6.88589 7.72175 6.74079 7.62917 6.64577 7.49328C6.55076 7.35739 6.51362 7.18932 6.54253 7.02605C6.57143 6.86278 6.66401 6.71767 6.7999 6.62266C6.93579 6.52764 7.10386 6.4905 7.26714 6.51941L13.7515 7.66472C13.8325 7.67879 13.9099 7.70869 13.9793 7.75272C14.0488 7.79675 14.1088 7.85404 14.1561 7.92132C14.2033 7.98859 14.2368 8.06452 14.2547 8.14476C14.2725 8.22501 14.2744 8.30798 14.2601 8.38894H14.2578ZM14.6914 5.92644C14.6658 6.07102 14.5903 6.20201 14.4778 6.29644C14.3654 6.39086 14.2233 6.44269 14.0765 6.44285C14.0399 6.4428 14.0033 6.43966 13.9671 6.43347L7.48276 5.28816C7.40007 5.27599 7.32066 5.24736 7.24923 5.20396C7.1778 5.16056 7.11581 5.10328 7.06691 5.0355C7.018 4.96772 6.98319 4.89082 6.96454 4.80934C6.94588 4.72787 6.94375 4.64349 6.95828 4.56118C6.97281 4.47887 7.0037 4.40032 7.04912 4.33016C7.09454 4.26 7.15357 4.19966 7.22272 4.15272C7.29187 4.10577 7.36974 4.07318 7.45171 4.05685C7.53368 4.04053 7.61809 4.04082 7.69995 4.05769L14.1843 5.20222C14.2654 5.2162 14.3429 5.24603 14.4124 5.29002C14.4819 5.33402 14.542 5.39129 14.5894 5.45858C14.6367 5.52586 14.6703 5.60182 14.6882 5.68211C14.7061 5.7624 14.708 5.84543 14.6937 5.92644H14.6914Z" fill="#71717A"/>
</svg>
