<svg width="24" height="24" viewBox="0 0 24 24" fill="none" xmlns="http://www.w3.org/2000/svg">
<g clip-path="url(#clip0_2110_1054)">
<path d="M7.13951 14.7952L7.8689 17.1618C8.03276 17.6991 8.10111 18.0742 8.07377 18.288C8.4727 17.2196 8.75139 16.0553 8.90995 14.7952H9.78698C9.40989 16.8467 8.91249 18.3375 8.2951 19.2676C7.81406 19.9842 7.28708 20.3425 6.71324 20.3425C6.56027 20.3425 6.37163 20.2963 6.14778 20.2045V19.7099C6.25714 19.726 6.38546 19.7346 6.53303 19.7346C6.80074 19.7346 7.01649 19.6604 7.18063 19.5123C7.37719 19.3319 7.47556 19.1291 7.47556 18.9044C7.47556 18.7509 7.39883 18.4359 7.24607 17.9595L6.2298 14.7952H7.13951ZM1.55738 13.3406L2.89335 17.4167H2.90155L4.24572 13.3406H5.34391C5.58438 15.362 5.72639 17.2116 5.77001 18.888H4.84412C4.81155 17.3209 4.72128 15.8472 4.57374 14.4668H4.56558L3.15568 18.888H2.45062L1.04925 14.4668H1.041C0.937018 15.7925 0.871601 17.2662 0.84432 18.888H0C0.0545617 16.9156 0.191109 15.0666 0.409641 13.3406H1.55738Z" fill="#00758F"/>
<path d="M16.5233 13.2583C17.9604 13.2583 18.679 14.1764 18.679 16.0117C18.679 17.009 18.4629 17.7623 18.0311 18.2713C17.9532 18.3643 17.8672 18.4446 17.7767 18.5191L18.7937 19.0219L18.7927 19.0218L18.4316 19.6454L17.1072 18.8726C16.8877 18.9376 16.6462 18.9701 16.3829 18.9701C15.6774 18.9701 15.1503 18.7645 14.8018 18.3538C14.4193 17.8993 14.2282 17.184 14.2282 16.2089C14.2282 15.2172 14.4439 14.4667 14.8758 13.9571C15.2691 13.491 15.8185 13.2583 16.5233 13.2583ZM12.1227 13.2664C12.6363 13.2664 13.1034 13.4038 13.524 13.6777L13.3103 14.1538C12.9504 14.0008 12.5955 13.924 12.2455 13.924C11.9616 13.924 11.7428 13.9924 11.5902 14.1299C11.4368 14.2662 11.342 14.4416 11.342 14.6555C11.342 14.984 11.5761 15.269 12.0083 15.5097C12.1246 15.573 12.276 15.6573 12.4316 15.7446L12.4639 15.7628C12.4693 15.7658 12.4746 15.7688 12.48 15.7718L12.5123 15.79C12.5177 15.7931 12.5231 15.7961 12.5285 15.7991L12.5607 15.8173C12.8879 16.0017 13.1958 16.1778 13.1958 16.1778C13.628 16.4846 13.8434 16.8117 13.8434 17.3504C13.8434 17.8209 13.671 18.2071 13.3273 18.5093C12.9834 18.8102 12.5213 18.961 11.9427 18.961C11.4015 18.961 10.8771 18.7874 10.369 18.443L10.6067 17.9665C11.0439 18.1856 11.4395 18.2951 11.7948 18.2951C12.128 18.2951 12.3888 18.2207 12.5775 18.0738C12.7657 17.9258 12.8786 17.7195 12.8786 17.4577C12.8786 17.1283 12.6495 16.8468 12.2291 16.6106C12.12 16.5505 11.9802 16.4721 11.8356 16.3904L11.8034 16.3722C11.7443 16.3387 11.6847 16.3049 11.6263 16.2717L11.5947 16.2537C11.3109 16.0923 11.0655 15.9512 11.0655 15.9512C10.6453 15.6439 10.4346 15.3141 10.4346 14.7708C10.4346 14.3214 10.5917 13.9581 10.9055 13.6818C11.22 13.4049 11.6258 13.2664 12.1227 13.2664ZM20.3678 13.3406V18.2057H22.1133V18.8881H19.4825V13.3406H20.3678ZM23.0833 18.2078V18.3231H22.8913V18.8875H22.7447V18.3231H22.5453V18.2078H23.0833ZM23.4377 18.2078L23.6219 18.6711L23.7912 18.2078H23.9991V18.8875H23.8609V18.3702L23.6682 18.8875H23.5685L23.3755 18.3702H23.3681V18.8875H23.2373V18.2078H23.4377ZM16.4329 13.9405C15.5861 13.9405 15.1624 14.6394 15.1624 16.0363C15.1624 16.8364 15.2747 17.4167 15.4988 17.7783C15.7063 18.1131 16.0314 18.28 16.4741 18.28C17.3209 18.28 17.7446 17.5757 17.7446 16.1677C17.7446 15.3787 17.6323 14.8034 17.4085 14.4417C17.2007 14.1077 16.8757 13.9405 16.4329 13.9405Z" fill="#F29111"/>
<path d="M14.2133 4.34374C14.4943 3.65346 15.4765 4.17619 15.8577 4.41736C15.9512 4.47765 16.0583 4.60511 16.1654 4.65222C16.3325 4.65881 16.4995 4.67184 16.6669 4.67886C16.9808 4.75262 17.2749 4.81291 17.5223 4.95383C18.6721 5.63094 19.4205 6.32093 20.1094 7.46062C20.2565 7.70207 20.3301 7.96329 20.4504 8.22451C20.6172 8.61391 20.8047 9.02263 20.9984 9.39088C21.0851 9.56542 21.1522 9.75955 21.2726 9.90696C21.3196 9.97437 21.4532 9.99421 21.533 10.0345C21.7537 10.1487 22.0211 10.2354 22.2286 10.3695C22.6163 10.6112 22.991 10.8992 23.3317 11.194C23.4587 11.3079 23.5452 11.469 23.6662 11.5894V11.6501C23.5588 11.6831 23.4518 11.7168 23.3447 11.7438C23.1107 11.804 22.9035 11.7904 22.6765 11.8505C22.5363 11.8912 22.3622 11.9449 22.215 11.9585C22.2216 11.9651 22.2286 11.9722 22.2286 11.9722C22.3152 12.2194 22.7834 12.4205 22.9975 12.5684C23.2576 12.7561 23.4985 12.9838 23.6925 13.2451C23.7595 13.3119 23.8265 13.3726 23.8932 13.4391C23.9397 13.5065 23.9529 13.5937 24 13.6538V13.6741C23.9478 13.6557 23.9103 13.6205 23.8746 13.5838L23.8534 13.5616C23.8322 13.5395 23.8108 13.5179 23.7863 13.5001C23.6388 13.3993 23.4922 13.2787 23.3447 13.185C23.091 13.0241 22.7968 12.9306 22.5363 12.7691C22.389 12.6752 22.2486 12.5684 22.1082 12.4611C21.9809 12.367 21.8408 12.1863 21.7608 12.0523C21.7137 11.9782 21.7073 11.8912 21.6534 11.8376C21.6631 11.7481 21.7451 11.7215 21.8278 11.6997L21.8468 11.6947C21.8753 11.6873 21.9033 11.6799 21.9277 11.6701C22.2752 11.5225 22.6895 11.469 23.2246 11.4824C23.2044 11.348 22.8701 11.1807 22.7634 11.1002C22.5491 10.9458 22.3223 10.7847 22.0951 10.6442C21.9746 10.5705 21.7671 10.5168 21.6337 10.4567C21.4532 10.3829 21.052 10.3092 20.952 10.1687C20.7821 9.94713 20.66 9.6829 20.5415 9.41596L20.5092 9.34313C20.4985 9.31884 20.4877 9.29457 20.4769 9.27033C20.3368 8.94892 20.1628 8.61381 20.0224 8.2847C19.949 8.12416 19.9153 7.98324 19.8349 7.82929C19.3471 6.88437 18.6251 6.09327 17.7497 5.53689C17.462 5.35587 17.1412 5.18831 16.7872 5.07446C16.5865 5.01388 16.3457 5.04739 16.1318 5.00085H15.9912C15.871 4.96705 15.7708 4.83973 15.6771 4.77257C15.4701 4.63207 15.2629 4.5377 15.0153 4.43745C14.9286 4.39721 14.681 4.30355 14.5945 4.3773C14.541 4.39076 14.5138 4.41096 14.5007 4.46466C14.4474 4.54486 14.4943 4.66559 14.5274 4.73948C14.6278 4.95373 14.7681 5.08105 14.8953 5.26207C15.0086 5.42261 15.1493 5.60363 15.2296 5.7782C15.4028 6.15342 15.4835 6.56917 15.6441 6.94438C15.7036 7.08545 15.7978 7.24599 15.8845 7.3733C15.9579 7.47427 16.0914 7.54731 16.1318 7.67519C16.2124 7.80924 16.0113 8.25162 15.9647 8.39211C15.7906 8.94181 15.8243 9.70589 16.0249 10.1824C16.0284 10.1907 16.032 10.1991 16.0356 10.2075L16.0462 10.233C16.1195 10.4075 16.1978 10.5954 16.3925 10.6442C16.4059 10.6309 16.3925 10.6379 16.4191 10.6309C16.4662 10.2621 16.4795 9.9069 16.6066 9.61834C16.68 9.43792 16.8267 9.31038 16.9273 9.16308C16.9943 9.2032 16.9943 9.3242 17.0343 9.40425C17.1212 9.61191 17.2146 9.83959 17.3219 10.0479C17.542 10.4768 17.7897 10.8926 18.0704 11.2678C18.1643 11.4018 18.2977 11.5493 18.418 11.67C18.4716 11.7167 18.5316 11.7438 18.5718 11.8039H18.585V11.8242C18.3844 11.7502 18.2573 11.5428 18.0973 11.4216C17.7963 11.194 17.4356 10.852 17.2281 10.5239C17.1412 10.3356 17.0474 10.1551 16.9538 9.96771V9.95416C16.9138 10.0077 16.9273 10.0608 16.9073 10.1419C16.8204 10.4768 16.8873 10.8589 16.5865 10.9793C16.2455 11.1204 15.9912 10.7516 15.8845 10.5841C15.5434 10.0278 15.45 9.08951 15.6905 8.33206C15.7439 8.16436 15.7512 7.96329 15.8445 7.82939C15.8243 7.70837 15.7311 7.67529 15.6771 7.60111C15.5835 7.47437 15.5034 7.32671 15.4301 7.18594C15.2894 6.91097 15.1893 6.58244 15.0825 6.28757C15.0355 6.16712 15.022 6.04625 14.9752 5.93226C14.8954 5.75825 14.7481 5.58368 14.6345 5.42972C14.4807 5.20846 14.0328 4.77968 14.2133 4.34374ZM16.4058 5.65694C16.4236 5.67484 16.4452 5.6905 16.4675 5.7059L16.4944 5.72438C16.5303 5.74919 16.565 5.77537 16.5863 5.81104C16.62 5.85815 16.6263 5.9047 16.6667 5.95196C16.6667 6.11307 16.62 6.2202 16.5258 6.28693C16.5258 6.28693 16.5193 6.29395 16.5128 6.30054C16.4594 6.19313 16.4125 6.0863 16.3587 5.97903C16.2924 5.88537 16.1987 5.81104 16.1447 5.70406H16.1317V5.6906C16.2124 5.67069 16.2924 5.65694 16.4058 5.65694Z" fill="#00758F"/>
</g>
<defs>
<clipPath id="clip0_2110_1054">
<rect width="24" height="16.3594" fill="white" transform="translate(0 4)"/>
</clipPath>
</defs>
</svg>
