<svg width="24" height="24" viewBox="0 0 24 24" fill="none" xmlns="http://www.w3.org/2000/svg">
<g clip-path="url(#clip0_2116_1060)">
<path d="M3.69437 2.86108L14.6786 2.04538C16.0278 1.92894 16.3745 2.00745 17.2228 2.62755L20.7291 5.11125C21.3074 5.53839 21.5 5.65483 21.5 6.1199V19.7413C21.5 20.595 21.1916 21.1 20.1124 21.1771L7.35686 21.9536C6.54695 21.9922 6.16118 21.8757 5.73703 21.3322L3.15508 17.9562C2.69189 17.3348 2.5 16.8697 2.5 16.3262V4.21837C2.5 3.52043 2.80835 2.93826 3.69437 2.86108Z" fill="white"/>
<path d="M14.6786 2.04538L3.69437 2.86108C2.80835 2.93826 2.5 3.52043 2.5 4.21837V16.3262C2.5 16.8697 2.69189 17.3348 3.15508 17.9562L5.73703 21.3322C6.16118 21.8757 6.54695 21.9922 7.35686 21.9536L20.1124 21.1771C21.191 21.1 21.5 20.595 21.5 19.7413V6.1199C21.5 5.67878 21.3266 5.5517 20.8165 5.17512C20.7871 5.15386 20.7578 5.13257 20.7285 5.11125L17.2228 2.62755C16.3745 2.00745 16.0278 1.92894 14.6786 2.04538ZM7.64536 5.89701C6.60385 5.96754 6.36763 5.9835 5.77607 5.4998L4.27203 4.29688C4.11918 4.14119 4.19593 3.94691 4.58104 3.90832L15.1404 3.13254C16.0271 3.05469 16.489 3.3654 16.8357 3.63686L18.6468 4.95622C18.7242 4.99548 18.9167 5.22768 18.6851 5.22768L7.78035 5.8877L7.64536 5.89701ZM6.43115 19.6249V8.06135C6.43115 7.55636 6.58532 7.32349 7.04719 7.28424L19.5718 6.54704C19.9966 6.50846 20.1885 6.77991 20.1885 7.28424V18.7706C20.1885 19.2756 20.1111 19.7027 19.4176 19.7413L7.4323 20.4399C6.73884 20.4785 6.43115 20.2463 6.43115 19.6249ZM18.2623 8.68144C18.3391 9.03075 18.2623 9.38005 17.9149 9.41997L17.3373 9.53507V18.0727C16.8357 18.3441 16.3738 18.4992 15.9881 18.4992C15.3714 18.4992 15.2172 18.3049 14.7553 17.7234L10.9777 11.7473V17.5291L12.1727 17.8012C12.1727 17.8012 12.1727 18.4998 11.2086 18.4998L8.55057 18.6548C8.47315 18.4992 8.55057 18.1113 8.81988 18.0341L9.514 17.8405V10.1958L8.55057 10.1172C8.47315 9.76794 8.6657 9.26361 9.20565 9.22436L12.0576 9.03141L15.9881 15.0846V9.72935L14.9862 9.61358C14.9088 9.18577 15.2172 8.87506 15.6023 8.83713L18.2623 8.68144Z" fill="black"/>
</g>
<defs>
<clipPath id="clip0_2116_1060">
<rect width="19" height="20" fill="white" transform="translate(2.5 2)"/>
</clipPath>
</defs>
</svg>
