<svg width="20" height="21" viewBox="0 0 20 21" fill="none" xmlns="http://www.w3.org/2000/svg">
<g clip-path="url(#clip0_2555_2382)">
<rect y="0.5" width="20" height="20" rx="2" fill="#61616B"/>
<mask id="mask0_2555_2382" style="mask-type:luminance" maskUnits="userSpaceOnUse" x="-2" y="-2" width="24" height="25">
<path d="M-2 -1.5H22V22.5H-2V-1.5Z" fill="white"/>
</mask>
<g mask="url(#mask0_2555_2382)">
<g clip-path="url(#clip1_2555_2382)">
<path d="M7.8618 16.3332C8.93514 16.3332 9.80625 15.4621 9.80625 14.3888V12.4443H7.8618C6.78847 12.4443 5.91736 13.3154 5.91736 14.3888C5.91736 15.4621 6.78847 16.3332 7.8618 16.3332Z" fill="white"/>
<path d="M5.91736 10.4996C5.91736 9.42629 6.78847 8.55518 7.8618 8.55518H9.80625V12.4441H7.8618C6.78847 12.4441 5.91736 11.573 5.91736 10.4996Z" fill="white"/>
<path d="M5.91772 6.61095C5.91772 5.53761 6.78884 4.6665 7.86217 4.6665H9.80661V8.55539H7.86217C6.78884 8.55539 5.91772 7.68428 5.91772 6.61095Z" fill="white"/>
<path d="M9.80627 4.6665H11.7507C12.8241 4.6665 13.6952 5.53761 13.6952 6.61095C13.6952 7.68428 12.8241 8.55539 11.7507 8.55539H9.80627V4.6665Z" fill="white"/>
<path d="M13.6952 10.4996C13.6952 11.573 12.8241 12.4441 11.7507 12.4441C10.6774 12.4441 9.80627 11.573 9.80627 10.4996C9.80627 9.42629 10.6774 8.55518 11.7507 8.55518C12.8241 8.55518 13.6952 9.42629 13.6952 10.4996Z" fill="white"/>
<path d="M9.93286 4.66455L9.93286 8.56705" stroke="#61616B" stroke-width="0.3"/>
</g>
</g>
</g>
<defs>
<clipPath id="clip0_2555_2382">
<rect y="0.5" width="20" height="20" rx="2" fill="white"/>
</clipPath>
<clipPath id="clip1_2555_2382">
<rect width="7.77933" height="11.6667" fill="white" transform="translate(5.91663 4.6665)"/>
</clipPath>
</defs>
</svg>
