<svg width="20" height="21" viewBox="0 0 20 21" fill="none" xmlns="http://www.w3.org/2000/svg">
<g clip-path="url(#clip0_2541_2220)">
<rect y="0.5" width="20" height="20" rx="3" fill="#61616B"/>
<mask id="mask0_2541_2220" style="mask-type:luminance" maskUnits="userSpaceOnUse" x="-2" y="-2" width="24" height="25">
<path d="M-2 -1.5H22V22.5H-2V-1.5Z" fill="white"/>
</mask>
<g mask="url(#mask0_2541_2220)">
<path d="M7.0035 15.8745C7.11855 15.3317 7.22817 14.8065 7.33325 14.2986C7.42068 13.8759 7.51806 13.407 7.62632 12.8927L7.69245 12.578L8.22695 9.98931H10.2762L10.6354 8.2764H8.49375L8.56124 7.93762L8.63598 7.56076C8.7157 7.16983 8.86065 6.87686 9.07037 6.68094C9.28009 6.48593 9.56954 6.38797 9.9387 6.38797C10.1484 6.38797 10.3554 6.41337 10.5602 6.46416C10.7649 6.51496 10.9597 6.58616 11.1445 6.67731L11.6835 4.85011C11.5032 4.77215 11.3165 4.70979 11.1255 4.66372C10.9048 4.60882 10.6809 4.56807 10.4551 4.54172C10.2218 4.51395 9.98703 4.50002 9.75208 4.5C9.38246 4.5 9.02825 4.54444 8.68898 4.63333C8.35297 4.7204 8.03742 4.87297 7.7604 5.08231C7.48092 5.29319 7.23768 5.57845 7.03022 5.939C6.82322 6.29954 6.66468 6.74851 6.55461 7.28638L6.32632 8.39431L6.35032 8.2764H5.1092L4.75 9.98931H5.99293L5.97481 10.0768C5.9413 10.2347 5.90868 10.3916 5.87652 10.5462L5.82805 10.7775L5.61063 11.8242L5.45391 12.5857C5.33652 13.1557 5.21799 13.7254 5.09833 14.295C4.98755 14.8211 4.87884 15.3476 4.7722 15.8745H7.0035ZM13.3776 8.26143L13.1638 8.812L14.1649 9.51721C14.2192 9.55485 14.2478 9.62514 14.2401 9.69635L14.2364 9.71721L14.1689 10.026C14.1522 10.1036 14.0933 10.1598 14.024 10.1648L13.1403 10.2238L13.8958 10.7517C13.9502 10.7893 13.9787 10.8601 13.9705 10.9308L13.9674 10.9521L13.8999 11.2605C13.8831 11.3385 13.8242 11.3948 13.7549 11.3993L12.8712 11.4587L13.6267 11.9861C13.6811 12.0238 13.7096 12.0945 13.7015 12.1653L13.6979 12.1866L13.6308 12.495C13.6136 12.573 13.5547 12.6292 13.4859 12.6337L12.6021 12.6936L13.3577 13.221C13.4116 13.2587 13.4406 13.329 13.4324 13.4002L13.4288 13.4215L13.3618 13.7299C13.3445 13.8079 13.2857 13.8641 13.2168 13.8687L12.3326 13.9281L13.0886 14.4555C13.1425 14.4931 13.1711 14.5639 13.1634 14.6346L13.1597 14.656L13.0927 14.9643C13.0755 15.0424 13.0166 15.0986 12.9473 15.1031L11.708 15.2129L11.554 15.875H10.5642L10.87 14.6582C10.8872 14.5807 10.9461 14.5244 11.0154 14.5199L11.8987 14.46L11.1431 13.9326C11.116 13.912 11.0947 13.8846 11.0816 13.8531C11.0685 13.8217 11.0639 13.7873 11.0684 13.7535L11.072 13.7326L11.1395 13.4238C11.1563 13.3462 11.2152 13.29 11.2845 13.285L12.1677 13.2256L11.4126 12.6981C11.3855 12.6776 11.3642 12.6502 11.3511 12.6187C11.338 12.5872 11.3334 12.5528 11.3379 12.519L11.3411 12.4977L11.4086 12.1893C11.4253 12.1113 11.4842 12.0551 11.5535 12.0505L12.4373 11.9907L11.6817 11.4637C11.6545 11.4431 11.6333 11.4157 11.6202 11.3842C11.607 11.3528 11.6025 11.3184 11.607 11.2845L11.6106 11.2632L11.6776 10.9548C11.6944 10.8768 11.7533 10.8206 11.8226 10.8161L12.7063 10.7562L11.9508 10.2288C11.9236 10.2082 11.9024 10.1808 11.8892 10.1493C11.8761 10.1178 11.8715 10.0834 11.876 10.0496L11.8797 10.0283L11.9467 9.71993C11.9639 9.64192 12.0228 9.58569 12.0916 9.58115L12.9758 9.52174L12.2194 8.99431C12.1922 8.97377 12.1709 8.94636 12.1578 8.91488C12.1446 8.8834 12.1401 8.84898 12.1446 8.81517L12.1483 8.79386L12.286 8.30361L13.3772 8.26143H13.3776ZM14.1386 4.56848C14.5444 4.56848 14.8452 4.7068 15.04 4.98344C15.2361 5.26009 15.2946 5.59115 15.2166 5.97664C15.1283 6.41881 14.9462 6.71677 14.6704 6.87187C14.3941 7.02606 14.0507 7.10407 13.6399 7.10407C13.239 7.10407 12.9373 6.98343 12.7344 6.74217C12.5315 6.5009 12.4739 6.15713 12.5623 5.71042C12.6452 5.30453 12.8273 5.01247 13.1085 4.83515C13.3894 4.65737 13.7327 4.56848 14.1386 4.56848Z" fill="white"/>
</g>
</g>
<defs>
<clipPath id="clip0_2541_2220">
<rect y="0.5" width="20" height="20" rx="3" fill="white"/>
</clipPath>
</defs>
</svg>
