<svg width="25" height="24" viewBox="0 0 25 24" fill="none" xmlns="http://www.w3.org/2000/svg">
<g clip-path="url(#clip0_2494_1774)">
<path d="M20.75 9.75001V10.5C20.7484 11.769 20.2877 12.9946 19.453 13.9504C18.6183 14.9063 17.466 15.5278 16.2087 15.7003C16.7219 16.357 17.0005 17.1666 17 18V21.75C17 21.9489 16.921 22.1397 16.7803 22.2803C16.6397 22.421 16.4489 22.5 16.25 22.5H10.25C10.0511 22.5 9.86032 22.421 9.71967 22.2803C9.57902 22.1397 9.5 21.9489 9.5 21.75V20.25H7.25C6.25544 20.25 5.30161 19.8549 4.59835 19.1517C3.89509 18.4484 3.5 17.4946 3.5 16.5C3.5 15.9033 3.26295 15.331 2.84099 14.909C2.41903 14.4871 1.84674 14.25 1.25 14.25C1.05109 14.25 0.860322 14.171 0.71967 14.0303C0.579018 13.8897 0.5 13.6989 0.5 13.5C0.5 13.3011 0.579018 13.1103 0.71967 12.9697C0.860322 12.829 1.05109 12.75 1.25 12.75C1.74246 12.75 2.23009 12.847 2.68506 13.0355C3.14003 13.2239 3.55343 13.5001 3.90165 13.8484C4.24987 14.1966 4.52609 14.61 4.71455 15.0649C4.903 15.5199 5 16.0076 5 16.5C5 17.0967 5.23705 17.669 5.65901 18.091C6.08097 18.513 6.65326 18.75 7.25 18.75H9.5V18C9.49952 17.1666 9.77807 16.357 10.2913 15.7003C9.03402 15.5278 7.88166 14.9063 7.04696 13.9504C6.21225 12.9946 5.75158 11.769 5.75 10.5V9.75001C5.75934 8.81793 6.00756 7.90381 6.47094 7.09501C6.24169 6.35551 6.16816 5.57653 6.25497 4.80719C6.34177 4.03785 6.58704 3.29484 6.97531 2.62501C7.04115 2.51097 7.13586 2.41628 7.2499 2.35045C7.36395 2.28462 7.49332 2.24998 7.625 2.25001C8.49857 2.24818 9.36047 2.4507 10.1418 2.84137C10.9232 3.23205 11.6023 3.80006 12.125 4.50001H14.375C14.8977 3.80006 15.5768 3.23205 16.3582 2.84137C17.1395 2.4507 18.0014 2.24818 18.875 2.25001C19.0067 2.24998 19.136 2.28462 19.2501 2.35045C19.3641 2.41628 19.4588 2.51097 19.5247 2.62501C19.913 3.29482 20.1582 4.03787 20.2449 4.80725C20.3315 5.57662 20.2577 6.35561 20.0281 7.09501C20.4924 7.90349 20.741 8.81776 20.75 9.75001Z" fill="#52525B"/>
</g>
<defs>
<clipPath id="clip0_2494_1774">
<rect width="24" height="24" fill="white" transform="translate(0.5)"/>
</clipPath>
</defs>
</svg>
