<svg width="20" height="21" viewBox="0 0 20 21" fill="none" xmlns="http://www.w3.org/2000/svg">
<g clip-path="url(#clip0_2547_2317)">
<rect y="0.5" width="20" height="20" rx="2" fill="#61616B"/>
<mask id="mask0_2547_2317" style="mask-type:luminance" maskUnits="userSpaceOnUse" x="-2" y="-2" width="24" height="25">
<path d="M-2 -1.5H22V22.5H-2V-1.5Z" fill="white"/>
</mask>
<g mask="url(#mask0_2547_2317)">
<path fill-rule="evenodd" clip-rule="evenodd" d="M5.94421 5.35316C6.04114 5.3424 6.13912 5.36014 6.22607 5.40418C6.31302 5.44822 6.38514 5.51665 6.43357 5.60103L9.76042 11.4045L13.768 10.4356L12.5932 8.79615C12.5434 8.72653 12.5124 8.64529 12.5032 8.56026C12.4939 8.47523 12.5068 8.38926 12.5406 8.31062C12.5743 8.23199 12.6278 8.16334 12.6959 8.11127C12.764 8.0592 12.8443 8.02547 12.9293 8.01332L15.2627 7.68105C15.3471 7.66903 15.4332 7.67872 15.5128 7.70919C15.5924 7.73966 15.6628 7.78991 15.7174 7.85516L17.3842 9.84879C17.4386 9.91386 17.4754 9.99167 17.4912 10.0749C17.5071 10.1581 17.5014 10.2439 17.4747 10.3243C17.448 10.4047 17.4012 10.477 17.3387 10.5344C17.2762 10.5918 17.2001 10.6323 17.1175 10.6522L15.4421 11.0576L16.7401 12.8685C16.7842 12.9299 16.8136 13.0005 16.8263 13.0749C16.8389 13.1493 16.8344 13.2256 16.8132 13.298C16.7919 13.3705 16.7545 13.4372 16.7036 13.4931C16.6527 13.549 16.5897 13.5926 16.5195 13.6207L11.5192 15.6144C11.4072 15.6591 11.2827 15.6619 11.1687 15.6224C11.0548 15.5828 10.959 15.5035 10.8992 15.399L9.26573 12.5495L6.11755 13.3104C6.00425 13.3377 5.88494 13.3247 5.78025 13.2736C5.67556 13.2225 5.59206 13.1366 5.54419 13.0306L2.54402 6.38519C2.51171 6.3136 2.49682 6.23541 2.50057 6.157C2.50431 6.07859 2.52659 6.00216 2.56558 5.93396C2.60457 5.86575 2.65917 5.80769 2.72494 5.7645C2.79071 5.72131 2.86578 5.69422 2.94405 5.68543L5.94421 5.35316ZM8.74903 11.649L5.72887 6.37921L3.73742 6.6005L6.2849 12.2438L8.74903 11.649ZM10.2771 12.3049L11.5512 14.5278L15.5561 12.9316L14.3947 11.3101L10.2771 12.3049ZM14.816 10.1831L16.1021 9.87205L15.1281 8.7071L13.8846 8.88387L14.8154 10.1831H14.816Z" fill="white"/>
</g>
</g>
<defs>
<clipPath id="clip0_2547_2317">
<rect y="0.5" width="20" height="20" rx="2" fill="white"/>
</clipPath>
</defs>
</svg>
