<svg width="20" height="20" viewBox="0 0 20 20" fill="none" xmlns="http://www.w3.org/2000/svg">
<g clip-path="url(#clip0_2563_111)">
<rect width="20" height="20" rx="2" fill="#61616B"/>
<mask id="mask0_2563_111" style="mask-type:luminance" maskUnits="userSpaceOnUse" x="-2" y="-2" width="24" height="24">
<path d="M-2 -2H22V22H-2V-2Z" fill="white"/>
</mask>
<g mask="url(#mask0_2563_111)">
<path d="M11.2685 5.14321C10.6557 4.52076 10.1279 3.88859 10.0201 3.75729C10.0087 3.74757 9.99171 3.74757 9.9804 3.75729C9.87253 3.88859 9.34484 4.52076 8.73196 5.14321C3.47164 10.8862 9.56046 14.762 9.56046 14.762L9.61153 14.7911C9.6569 15.3893 9.7704 16.25 9.7704 16.25H9.99734H10.2243C10.2243 16.25 10.3379 15.3941 10.3833 14.7911L10.4343 14.7571C10.44 14.7571 16.5288 10.8862 11.2685 5.14321ZM9.99734 14.6744C9.99734 14.6744 9.72503 14.4751 9.65121 14.3729V14.3632L9.9804 8.10956C9.9804 8.09011 10.0144 8.09011 10.0144 8.10956L10.3436 14.3632V14.3729C10.2698 14.4751 9.99734 14.6744 9.99734 14.6744Z" fill="white"/>
</g>
</g>
<defs>
<clipPath id="clip0_2563_111">
<rect width="20" height="20" rx="2" fill="white"/>
</clipPath>
</defs>
</svg>
