<svg width="20" height="21" viewBox="0 0 20 21" fill="none" xmlns="http://www.w3.org/2000/svg">
<g clip-path="url(#clip0_2547_2362)">
<rect y="0.5" width="20" height="20" rx="2" fill="#61616B"/>
<mask id="mask0_2547_2362" style="mask-type:luminance" maskUnits="userSpaceOnUse" x="-2" y="-2" width="24" height="25">
<path d="M-2 -1.5H22V22.5H-2V-1.5Z" fill="white"/>
</mask>
<g mask="url(#mask0_2547_2362)">
<g clip-path="url(#clip1_2547_2362)">
<path d="M6.89052 12.6798L7.40718 14.3561C7.52325 14.7367 7.57166 15.0024 7.55229 15.1538C7.83487 14.3971 8.03228 13.5723 8.14459 12.6798H8.76581C8.49871 14.1329 8.14639 15.1889 7.70907 15.8477C7.36833 16.3553 6.99506 16.6091 6.58859 16.6091C6.48023 16.6091 6.34661 16.5764 6.18806 16.5113V16.161C6.26551 16.1724 6.35641 16.1785 6.46094 16.1785C6.65056 16.1785 6.80339 16.1259 6.91965 16.0211C7.05889 15.8933 7.12856 15.7496 7.12856 15.5904C7.12856 15.4817 7.07421 15.2586 6.96601 14.9211L6.24615 12.6798H6.89052ZM2.93652 11.6494L3.88283 14.5367H3.88864L4.84076 11.6494H5.61865C5.78898 13.0813 5.88957 14.3914 5.92046 15.5789H5.26462C5.24156 14.4688 5.17762 13.425 5.07311 12.4472H5.06733L4.06865 15.5789H3.56923L2.5766 12.4472H2.57075C2.49709 13.3862 2.45076 14.43 2.43143 15.5789H1.83337C1.87202 14.1817 1.96874 12.872 2.12354 11.6494H2.93652Z" fill="white"/>
<path d="M13.5374 11.5911C14.5553 11.5911 15.0643 12.2414 15.0643 13.5414C15.0643 14.2478 14.9112 14.7814 14.6054 15.1419C14.5503 15.2078 14.4893 15.2647 14.4252 15.3174L15.1455 15.6736L15.1448 15.6736L14.8891 16.1152L13.951 15.5679C13.7955 15.6139 13.6244 15.6369 13.438 15.6369C12.9382 15.6369 12.5648 15.4913 12.318 15.2003C12.047 14.8785 11.9117 14.3718 11.9117 13.681C11.9117 12.9786 12.0644 12.447 12.3704 12.0861C12.649 11.7559 13.0381 11.5911 13.5374 11.5911ZM10.4203 11.5968C10.7841 11.5968 11.1149 11.6942 11.4129 11.8882L11.2615 12.2254C11.0066 12.117 10.7552 12.0626 10.5073 12.0626C10.3062 12.0626 10.1512 12.111 10.0431 12.2084C9.93447 12.305 9.86729 12.4293 9.86729 12.5807C9.86729 12.8134 10.0331 13.0153 10.3393 13.1858C10.4216 13.2306 10.5289 13.2903 10.6391 13.3522L10.662 13.3651C10.6658 13.3672 10.6696 13.3693 10.6734 13.3715L10.6963 13.3844C10.7001 13.3865 10.7039 13.3887 10.7077 13.3908L10.7306 13.4037C10.9623 13.5343 11.1804 13.6591 11.1804 13.6591C11.4866 13.8764 11.6391 14.108 11.6391 14.4896C11.6391 14.8229 11.517 15.0965 11.2736 15.3105C11.03 15.5236 10.7027 15.6305 10.2928 15.6305C9.90948 15.6305 9.53797 15.5075 9.1781 15.2636L9.34645 14.926C9.65614 15.0813 9.93639 15.1588 10.188 15.1588C10.424 15.1588 10.6088 15.1061 10.7424 15.002C10.8758 14.8972 10.9557 14.7511 10.9557 14.5656C10.9557 14.3323 10.7934 14.1329 10.4957 13.9656C10.4184 13.9231 10.3193 13.8675 10.2169 13.8096L10.1941 13.7967C10.1522 13.773 10.11 13.7491 10.0687 13.7256L10.0463 13.7128C9.84524 13.5985 9.67142 13.4986 9.67142 13.4986C9.37377 13.2809 9.22454 13.0473 9.22454 12.6624C9.22454 12.3441 9.33583 12.0868 9.5581 11.891C9.78089 11.6949 10.0683 11.5968 10.4203 11.5968ZM16.2606 11.6494V15.0955H17.497V15.5788H15.6335V11.6494H16.2606ZM18.1841 15.097V15.1786H18.0481V15.5784H17.9442V15.1786H17.8029V15.097H18.1841ZM18.4351 15.097L18.5656 15.4251L18.6855 15.097H18.8328V15.5784H18.7348V15.212L18.5984 15.5784H18.5277L18.3911 15.212H18.3858V15.5784H18.2931V15.097H18.4351ZM13.4734 12.0743C12.8735 12.0743 12.5734 12.5694 12.5734 13.5588C12.5734 14.1256 12.653 14.5366 12.8117 14.7928C12.9587 15.0298 13.189 15.1481 13.5025 15.1481C14.1024 15.1481 14.4024 14.6492 14.4024 13.6519C14.4024 13.093 14.3229 12.6855 14.1644 12.4293C14.0172 12.1927 13.787 12.0743 13.4734 12.0743Z" fill="white"/>
<path d="M11.9011 5.27669C12.1001 4.78774 12.7959 5.158 13.0659 5.32883C13.1321 5.37154 13.2079 5.46182 13.2838 5.4952C13.4022 5.49986 13.5205 5.50909 13.639 5.51406C13.8614 5.56631 14.0697 5.60901 14.245 5.70883C15.0594 6.18845 15.5895 6.6772 16.0775 7.48447C16.1817 7.6555 16.2338 7.84054 16.319 8.02557C16.4372 8.30139 16.57 8.5909 16.7072 8.85174C16.7686 8.97538 16.8162 9.11288 16.9014 9.2173C16.9347 9.26505 17.0293 9.27911 17.0859 9.30764C17.2422 9.38855 17.4316 9.44997 17.5786 9.54495C17.8532 9.71614 18.1186 9.92014 18.3599 10.129C18.4499 10.2096 18.5112 10.3237 18.5969 10.409V10.452C18.5208 10.4754 18.445 10.4993 18.3691 10.5184C18.2034 10.561 18.0566 10.5514 17.8959 10.594C17.7965 10.6228 17.6732 10.6608 17.569 10.6705C17.5736 10.6751 17.5786 10.6802 17.5786 10.6802C17.6399 10.8553 17.9715 10.9978 18.1232 11.1025C18.3074 11.2354 18.4781 11.3967 18.6155 11.5818C18.663 11.6291 18.7104 11.6721 18.7576 11.7192C18.7906 11.767 18.7999 11.8287 18.8333 11.8713V11.8857C18.7963 11.8726 18.7698 11.8478 18.7445 11.8217L18.7295 11.806C18.7145 11.7904 18.6993 11.7751 18.682 11.7624C18.5775 11.691 18.4737 11.6056 18.3691 11.5392C18.1895 11.4252 17.9811 11.3591 17.7965 11.2446C17.6922 11.1782 17.5927 11.1025 17.4933 11.0265C17.4032 10.9598 17.3039 10.8318 17.2472 10.7369C17.2139 10.6844 17.2093 10.6228 17.1712 10.5849C17.178 10.5215 17.2361 10.5026 17.2946 10.4871L17.3082 10.4836C17.3284 10.4783 17.3481 10.4731 17.3654 10.4662C17.6116 10.3616 17.9051 10.3237 18.2841 10.3332C18.2698 10.2381 18.0329 10.1195 17.9574 10.0625C17.8056 9.95315 17.645 9.83903 17.484 9.73949C17.3987 9.68734 17.2517 9.6493 17.1572 9.6067C17.0293 9.55444 16.7451 9.50221 16.6743 9.40267C16.5539 9.24576 16.4675 9.05859 16.3835 8.86951L16.3607 8.81792C16.3531 8.80072 16.3454 8.78352 16.3378 8.76636C16.2386 8.53869 16.1153 8.30132 16.0159 8.0682C15.9639 7.95449 15.94 7.85467 15.883 7.74562C15.5375 7.0763 15.0261 6.51594 14.406 6.12183C14.2023 5.99361 13.975 5.87492 13.7242 5.79428C13.5821 5.75137 13.4115 5.7751 13.26 5.74214H13.1604C13.0753 5.7182 13.0043 5.62801 12.9379 5.58044C12.7913 5.48092 12.6445 5.41407 12.4692 5.34306C12.4078 5.31456 12.2323 5.24822 12.1711 5.30046C12.1332 5.30999 12.114 5.3243 12.1047 5.36234C12.0669 5.41915 12.1001 5.50466 12.1236 5.557C12.1947 5.70876 12.2941 5.79894 12.3842 5.92717C12.4644 6.04088 12.5641 6.16911 12.6209 6.29276C12.7437 6.55854 12.8008 6.85303 12.9145 7.11881C12.9567 7.21873 13.0234 7.33244 13.0848 7.42263C13.1368 7.49414 13.2314 7.54588 13.26 7.63647C13.3171 7.73142 13.1747 8.04477 13.1417 8.14428C13.0183 8.53365 13.0422 9.07487 13.1843 9.41241C13.1868 9.4183 13.1893 9.42424 13.1918 9.43021L13.1994 9.44822C13.2513 9.57183 13.3068 9.70494 13.4447 9.73952C13.4542 9.73009 13.4447 9.73505 13.4635 9.73009C13.4969 9.46883 13.5063 9.21726 13.5963 9.01286C13.6483 8.88507 13.7522 8.79472 13.8235 8.69039C13.8709 8.7188 13.8709 8.80451 13.8993 8.86122C13.9609 9.00831 14.027 9.16958 14.103 9.31711C14.2589 9.62093 14.4344 9.91546 14.6332 10.1812C14.6997 10.2761 14.7942 10.3806 14.8794 10.4661C14.9174 10.4992 14.9598 10.5184 14.9884 10.561H14.9977V10.5753C14.8556 10.5229 14.7656 10.376 14.6523 10.2902C14.439 10.1289 14.1835 9.88673 14.0365 9.65433C13.975 9.52094 13.9086 9.39307 13.8423 9.26033V9.25073C13.814 9.28866 13.8235 9.3263 13.8093 9.38368C13.7478 9.62092 13.7951 9.89156 13.5821 9.97687C13.3406 10.0768 13.1604 9.8156 13.0848 9.69693C12.8432 9.30292 12.777 8.63828 12.9474 8.10175C12.9853 7.98296 12.9904 7.84054 13.0565 7.74569C13.0422 7.65997 12.9762 7.63653 12.9379 7.58399C12.8716 7.49421 12.8149 7.38962 12.763 7.28991C12.6633 7.09514 12.5924 6.86243 12.5167 6.65356C12.4834 6.56825 12.4739 6.48263 12.4408 6.40188C12.3842 6.27863 12.2799 6.15497 12.1995 6.04592C12.0905 5.8892 11.7732 5.58548 11.9011 5.27669ZM13.4541 6.20687C13.4667 6.21955 13.482 6.23064 13.4978 6.24155L13.5169 6.25464C13.5423 6.27221 13.5669 6.29076 13.582 6.31602C13.6059 6.3494 13.6103 6.38236 13.6389 6.41584C13.6389 6.52996 13.6059 6.60584 13.5391 6.65311C13.5391 6.65311 13.5345 6.65809 13.5299 6.66275C13.492 6.58667 13.4588 6.511 13.4207 6.43501C13.3738 6.36867 13.3074 6.31602 13.2692 6.24025H13.2599V6.23071C13.3171 6.21661 13.3738 6.20687 13.4541 6.20687Z" fill="white"/>
</g>
</g>
</g>
<defs>
<clipPath id="clip0_2547_2362">
<rect y="0.5" width="20" height="20" rx="2" fill="white"/>
</clipPath>
<clipPath id="clip1_2547_2362">
<rect width="17" height="11.5879" fill="white" transform="translate(1.83337 5.0332)"/>
</clipPath>
</defs>
</svg>
