<svg width="20" height="20" viewBox="0 0 20 20" fill="none" xmlns="http://www.w3.org/2000/svg">
<g clip-path="url(#clip0_2563_97)">
<rect width="20" height="20" rx="2" fill="#61616B"/>
<mask id="mask0_2563_97" style="mask-type:luminance" maskUnits="userSpaceOnUse" x="-2" y="-2" width="24" height="24">
<path d="M-2 -2H22V22H-2V-2Z" fill="white"/>
</mask>
<g mask="url(#mask0_2563_97)">
<path d="M9.57472 3.51033C9.5468 3.51287 9.45794 3.52176 9.37797 3.5281C7.53352 3.6944 5.80585 4.68961 4.71163 6.21925C4.10231 7.06975 3.7126 8.0345 3.56535 9.05637C3.51331 9.41307 3.50696 9.51844 3.50696 10.0021C3.50696 10.4857 3.51331 10.5911 3.56535 10.9478C3.91825 13.3863 5.65353 15.4351 8.00701 16.1942C8.42845 16.3301 8.87274 16.4227 9.37797 16.4786C9.57472 16.5002 10.4252 16.5002 10.622 16.4786C11.4941 16.3821 12.2329 16.1663 12.9615 15.7944C13.0732 15.7373 13.0948 15.722 13.0796 15.7093C13.0694 15.7017 12.5934 15.0632 12.0221 14.2914L10.9838 12.8887L9.68262 10.963C8.96668 9.90434 8.37767 9.0386 8.3726 9.0386C8.36752 9.03733 8.36244 9.89291 8.3599 10.9376C8.35609 12.7668 8.35482 12.8405 8.33197 12.8836C8.29897 12.9458 8.27358 12.9712 8.22027 12.9991C8.17965 13.0195 8.1441 13.0233 7.95242 13.0233H7.73281L7.67442 12.9865C7.63634 12.9623 7.60841 12.9306 7.58937 12.8938L7.56271 12.8367L7.56525 10.2915L7.56906 7.74507L7.60841 7.69557C7.62872 7.66891 7.67188 7.63464 7.70235 7.61813C7.75439 7.59274 7.7747 7.59021 7.99431 7.59021C8.25327 7.59021 8.29643 7.60036 8.36371 7.67399C8.38275 7.6943 9.08727 8.75552 9.93016 10.0338C10.773 11.3121 11.9257 13.0575 12.4918 13.9144L13.52 15.472L13.5721 15.4377C14.0329 15.1381 14.5203 14.7116 14.9062 14.2673C15.7275 13.3241 16.2569 12.174 16.4346 10.9478C16.4866 10.5911 16.493 10.4857 16.493 10.0021C16.493 9.51844 16.4866 9.41307 16.4346 9.05637C16.0817 6.61784 14.3464 4.56902 11.9929 3.80991C11.5778 3.67535 11.1361 3.58269 10.641 3.52683C10.5192 3.51414 9.68008 3.50018 9.57472 3.51033ZM12.2329 7.43788C12.2938 7.46834 12.3433 7.52674 12.3611 7.58767C12.3712 7.62067 12.3738 8.32646 12.3712 9.91703L12.3674 12.1994L11.965 11.5825L11.5613 10.9656V9.30644C11.5613 8.2338 11.5664 7.63083 11.574 7.60163C11.5944 7.53054 11.6388 7.47469 11.6997 7.44168C11.7518 7.41503 11.7708 7.41249 11.9701 7.41249C12.158 7.41249 12.191 7.41503 12.2329 7.43788Z" fill="white"/>
<path d="M13.4565 15.4998C13.4121 15.5277 13.3981 15.5468 13.4375 15.5252C13.4654 15.5087 13.5111 15.4744 13.5035 15.4731C13.4997 15.4731 13.4781 15.4858 13.4565 15.4998ZM13.3689 15.5569C13.3461 15.5747 13.3461 15.576 13.374 15.562C13.3893 15.5544 13.4019 15.5455 13.4019 15.543C13.4019 15.5328 13.3956 15.5353 13.3689 15.5569ZM13.3055 15.595C13.2826 15.6128 13.2826 15.614 13.3106 15.6001C13.3258 15.5925 13.3385 15.5836 13.3385 15.581C13.3385 15.5709 13.3321 15.5734 13.3055 15.595ZM13.242 15.6331C13.2192 15.6509 13.2192 15.6521 13.2471 15.6382C13.2623 15.6306 13.275 15.6217 13.275 15.6191C13.275 15.609 13.2687 15.6115 13.242 15.6331ZM13.1455 15.6839C13.0973 15.7093 13.0998 15.7194 13.1481 15.6953C13.1696 15.6839 13.1862 15.6724 13.1862 15.6699C13.1862 15.661 13.1849 15.6623 13.1455 15.6839Z" fill="white"/>
</g>
</g>
<defs>
<clipPath id="clip0_2563_97">
<rect width="20" height="20" rx="2" fill="white"/>
</clipPath>
</defs>
</svg>
