<svg width="20" height="21" viewBox="0 0 20 21" fill="none" xmlns="http://www.w3.org/2000/svg">
<g clip-path="url(#clip0_2555_2389)">
<rect y="0.5" width="20" height="20" rx="2" fill="#61616B"/>
<mask id="mask0_2555_2389" style="mask-type:luminance" maskUnits="userSpaceOnUse" x="-3" y="-3" width="27" height="27">
<path d="M-2.66663 -2.1665H23.3334V23.8335H-2.66663V-2.1665Z" fill="white"/>
</mask>
<g mask="url(#mask0_2555_2389)">
<g clip-path="url(#clip1_2555_2389)">
<path d="M4.09863 3.91229L11.9032 3.33254C12.8618 3.24979 13.1082 3.30559 13.7109 3.74631L16.2023 5.51157C16.6132 5.81515 16.75 5.89791 16.75 6.22845V15.9097C16.75 16.5164 16.5309 16.8753 15.7641 16.9302L6.70093 17.482C6.12546 17.5094 5.85136 17.4267 5.54999 17.0403L3.71545 14.641C3.38634 14.1993 3.25 13.8687 3.25 13.4824V4.87696C3.25 4.38091 3.46909 3.96715 4.09863 3.91229Z" fill="#61616B"/>
<path d="M11.9032 3.33254L4.09863 3.91229C3.46909 3.96715 3.25 4.38091 3.25 4.87696V13.4824C3.25 13.8687 3.38634 14.1993 3.71545 14.641L5.54999 17.0403C5.85136 17.4267 6.12546 17.5094 6.70093 17.482L15.7641 16.9302C16.5304 16.8753 16.75 16.5164 16.75 15.9097V6.22845C16.75 5.91493 16.6268 5.82461 16.2643 5.55696C16.2435 5.54185 16.2226 5.52672 16.2018 5.51157L13.7109 3.74631C13.1082 3.30559 12.8618 3.24979 11.9032 3.33254ZM6.90592 6.07004C6.16589 6.12016 5.99805 6.13151 5.57773 5.78773L4.50907 4.93276C4.40047 4.82211 4.455 4.68403 4.72863 4.6566L12.2314 4.10523C12.8614 4.0499 13.1895 4.27073 13.4359 4.46367L14.7227 5.40139C14.7777 5.42929 14.9145 5.59432 14.75 5.59432L7.00183 6.06342L6.90592 6.07004ZM6.04318 15.8269V7.60831C6.04318 7.24939 6.15273 7.08389 6.4809 7.05599L15.38 6.53204C15.6818 6.50461 15.8182 6.69755 15.8182 7.05599V15.2198C15.8182 15.5787 15.7631 15.8823 15.2704 15.9097L6.75453 16.4062C6.26181 16.4336 6.04318 16.2686 6.04318 15.8269ZM14.4495 8.04903C14.5041 8.29729 14.4495 8.54555 14.2027 8.57393L13.7923 8.65573V14.7237C13.4359 14.9166 13.1077 15.0268 12.8336 15.0268C12.3954 15.0268 12.2859 14.8887 11.9577 14.4754L9.27361 10.2281V14.3374L10.1227 14.5308C10.1227 14.5308 10.1227 15.0273 9.4377 15.0273L7.54909 15.1375C7.49408 15.0268 7.54909 14.7511 7.74044 14.6963L8.23363 14.5587V9.1253L7.54909 9.0695C7.49408 8.82124 7.63089 8.4628 8.01454 8.4349L10.0409 8.29777L12.8336 12.6V8.79382L12.1218 8.71153C12.0668 8.40747 12.2859 8.18664 12.5595 8.15969L14.4495 8.04903Z" fill="white"/>
</g>
</g>
</g>
<defs>
<clipPath id="clip0_2555_2389">
<rect y="0.5" width="20" height="20" rx="2" fill="white"/>
</clipPath>
<clipPath id="clip1_2555_2389">
<rect width="13.5" height="14.2147" fill="white" transform="translate(3.25 3.30029)"/>
</clipPath>
</defs>
</svg>
