<svg width="20" height="20" viewBox="0 0 20 20" fill="none" xmlns="http://www.w3.org/2000/svg">
<g clip-path="url(#clip0_2563_120)">
<rect width="20" height="20" rx="3" fill="#61616B"/>
<mask id="mask0_2563_120" style="mask-type:luminance" maskUnits="userSpaceOnUse" x="-2" y="-2" width="24" height="24">
<path d="M-2 -2H22V22H-2V-2Z" fill="white"/>
</mask>
<g mask="url(#mask0_2563_120)">
<path d="M15.6989 13.6364L10.9024 3.4404C10.781 3.18477 10.5293 3.01634 10.2469 3.00171C9.96387 2.98273 9.69376 3.12289 9.54612 3.36537L4.34378 11.7996C4.18228 12.0596 4.18568 12.3897 4.3525 12.6463L6.89596 16.589C7.09358 16.8929 7.46741 17.0305 7.81468 16.9271L15.1958 14.7417C15.4206 14.6759 15.6059 14.5157 15.7038 14.3027C15.8003 14.0906 15.7986 13.8468 15.6992 13.6361L15.6989 13.6364ZM14.625 14.0737L8.36172 15.9276C8.17066 15.9845 7.98726 15.8187 8.02701 15.6257L10.2647 4.90062C10.3065 4.69994 10.5834 4.66818 10.6709 4.85385L14.8133 13.6591C14.8504 13.7385 14.8508 13.8302 14.8145 13.91C14.7782 13.9897 14.7089 14.0496 14.6247 14.0737H14.625Z" fill="white"/>
</g>
</g>
<defs>
<clipPath id="clip0_2563_120">
<rect width="20" height="20" rx="3" fill="white"/>
</clipPath>
</defs>
</svg>
