<svg width="20" height="20" viewBox="0 0 20 20" fill="none" xmlns="http://www.w3.org/2000/svg">
<g clip-path="url(#clip0_2563_67)">
<rect width="20" height="20" rx="2" fill="#61616B"/>
<mask id="mask0_2563_67" style="mask-type:luminance" maskUnits="userSpaceOnUse" x="-2" y="-2" width="24" height="24">
<path d="M-2 -2H22V22H-2V-2Z" fill="white"/>
</mask>
<g mask="url(#mask0_2563_67)">
<path d="M10 11.1597C10.6472 11.1597 11.1719 10.635 11.1719 9.98779C11.1719 9.34058 10.6472 8.81592 10 8.81592C9.35279 8.81592 8.82812 9.34058 8.82812 9.98779C8.82812 10.635 9.35279 11.1597 10 11.1597Z" fill="white"/>
<path d="M10 12.6746C8.59147 12.7087 7.18647 12.5188 5.8375 12.1121C5.21435 11.9146 4.63316 11.6034 4.12328 11.1943C3.92872 11.0545 3.76669 10.8743 3.64832 10.6661C3.52994 10.4578 3.45803 10.2264 3.4375 9.98772C3.4375 9.21288 4.28875 8.45351 5.71469 7.95663C7.09972 7.51636 8.54684 7.30298 10 7.32476C11.4338 7.30472 12.8615 7.51425 14.2291 7.94538C14.8292 8.1367 15.3907 8.43284 15.8875 8.82007C16.0787 8.95331 16.2383 9.12697 16.355 9.32876C16.4716 9.53054 16.5425 9.75551 16.5625 9.98772C16.5625 10.793 15.6109 11.6091 14.0781 12.1163C12.7553 12.5098 11.3799 12.6981 10 12.6746ZM10 7.88538C8.60974 7.8668 7.22539 8.06965 5.89891 8.48632C4.58641 8.94429 3.99813 9.57054 3.99813 9.98632C3.99813 10.4213 4.63047 11.1052 6.01891 11.5801C7.30941 11.9672 8.6531 12.1474 10 12.114C11.3202 12.1376 12.6362 11.959 13.9023 11.5843C15.3438 11.1066 16 10.4218 16 9.98772C15.9763 9.83877 15.9221 9.69633 15.8406 9.56942C15.7591 9.44251 15.6522 9.33387 15.5266 9.25038C15.0821 8.90685 14.5805 8.6444 14.0448 8.47507C12.7366 8.06433 11.3711 7.86526 10 7.88538Z" fill="white"/>
<path d="M7.33756 15.8327C7.11889 15.8377 6.9028 15.7847 6.71131 15.679C6.04006 15.2918 5.80756 14.1752 6.08928 12.6916C6.3999 11.2718 6.93809 9.91161 7.68303 8.66366C8.38181 7.41167 9.2764 6.27955 10.3329 5.31022C10.7984 4.88586 11.3355 4.54735 11.9191 4.31038C12.1302 4.21144 12.3605 4.16016 12.5937 4.16016C12.8268 4.16016 13.0571 4.21144 13.2682 4.31038C13.9662 4.71256 14.1972 5.94444 13.8715 7.52553C13.5513 8.8683 13.027 10.154 12.3171 11.3379C11.6429 12.5751 10.7765 13.6973 9.75022 14.6627C9.26777 15.1037 8.70787 15.4516 8.09881 15.6888C7.85498 15.7793 7.5976 15.828 7.33756 15.8327ZM8.16866 8.9421C7.45808 10.1371 6.94225 11.4376 6.64053 12.7948C6.38131 14.1612 6.63022 14.9829 6.99209 15.1919C7.36709 15.409 8.2774 15.2032 9.38272 14.2376C10.3624 13.3127 11.1894 12.2384 11.8329 11.0548C12.513 9.92296 13.0159 8.69372 13.324 7.40975C13.6305 5.92147 13.3657 5.01022 12.9897 4.79366C12.8488 4.73967 12.6983 4.7155 12.5476 4.72268C12.3968 4.72986 12.2493 4.76824 12.1141 4.83538C11.5946 5.04976 11.117 5.35411 10.7032 5.73444C9.69381 6.66293 8.83929 7.74675 8.17194 8.94491L8.16866 8.9421Z" fill="white"/>
<path d="M12.6611 15.8387C12.026 15.8387 11.2193 15.4543 10.3793 14.732C9.30429 13.7538 8.39457 12.6082 7.68536 11.3396C6.94977 10.1088 6.41583 8.76831 6.1038 7.36884C5.96848 6.75313 5.9434 6.1183 6.02974 5.49384C6.0497 5.26218 6.12024 5.03773 6.23638 4.8363C6.35252 4.63488 6.51144 4.46138 6.70193 4.32805C7.39896 3.92446 8.58161 4.3393 9.78864 5.41087C10.792 6.35877 11.6441 7.45495 12.3152 8.66118C13.0503 9.86322 13.5899 11.1744 13.9136 12.5457C14.0548 13.184 14.0766 13.8429 13.9779 14.4891C13.9544 14.7275 13.8796 14.9579 13.7588 15.1646C13.6379 15.3713 13.4737 15.5495 13.2776 15.6868C13.0892 15.7912 12.8764 15.8436 12.6611 15.8387ZM8.17052 11.0574C8.85088 12.2698 9.71987 13.3662 10.7449 14.3054C11.7991 15.2124 12.6354 15.4074 12.9949 15.196C13.3699 14.9781 13.6465 14.0884 13.3615 12.6488C13.0492 11.3396 12.5317 10.088 11.8282 8.94055C11.1878 7.78608 10.3745 6.73643 9.41646 5.82805C8.28021 4.8193 7.35865 4.59384 6.98318 4.81134C6.86615 4.90644 6.77011 5.02477 6.70113 5.15886C6.63215 5.29295 6.59172 5.43989 6.5824 5.5904C6.50787 6.14731 6.53214 6.71301 6.65411 7.26149C6.95426 8.59984 7.46634 9.88162 8.17099 11.0584L8.17052 11.0574Z" fill="white"/>
</g>
</g>
<defs>
<clipPath id="clip0_2563_67">
<rect width="20" height="20" rx="2" fill="white"/>
</clipPath>
</defs>
</svg>
