<svg width="20" height="20" viewBox="0 0 20 20" fill="none" xmlns="http://www.w3.org/2000/svg">
<g clip-path="url(#clip0_2563_126)">
<rect width="20" height="20" rx="2" fill="#61616B"/>
<mask id="mask0_2563_126" style="mask-type:luminance" maskUnits="userSpaceOnUse" x="-2" y="-2" width="24" height="24">
<path d="M-2 -2H22V22H-2V-2Z" fill="white"/>
</mask>
<g mask="url(#mask0_2563_126)">
<g clip-path="url(#clip1_2563_126)">
<path d="M17.2916 1.6665H2.70829C2.133 1.6665 1.66663 2.13287 1.66663 2.70817V17.2915C1.66663 17.8668 2.133 18.3332 2.70829 18.3332H17.2916C17.8669 18.3332 18.3333 17.8668 18.3333 17.2915V2.70817C18.3333 2.13287 17.8669 1.6665 17.2916 1.6665Z" fill="#61616B"/>
<path d="M6.79985 5.98486C6.79985 7.41702 7.70011 8.26911 9.50219 8.71846L11.4118 9.15348C13.1174 9.53825 14.1561 10.4942 14.1561 12.0517C14.1694 12.7302 13.9448 13.3924 13.5202 13.9277C13.5202 12.3738 12.7019 11.5343 10.7285 11.0295L8.85349 10.6106C7.35206 10.2741 6.19308 9.48812 6.19308 7.79645C6.18527 7.1432 6.39868 6.50596 6.79985 5.98486Z" fill="white"/>
<path d="M12.3466 11.67C13.1612 12.182 13.5184 12.8981 13.5184 13.9256C12.8441 14.7741 11.6598 15.2502 10.2676 15.2502C7.92423 15.2502 6.28425 14.1172 5.9198 12.148H8.17019C8.4599 13.0521 9.22709 13.4709 10.2512 13.4709C11.5012 13.4709 12.3322 12.8157 12.3484 11.6665" fill="#D4D4D8"/>
<path d="M7.96978 8.10814C7.59778 7.89095 7.2927 7.57884 7.08671 7.20514C6.88072 6.83132 6.78163 6.4097 6.79986 5.98496C7.45038 5.14368 8.58202 4.62988 9.96145 4.62988C12.3486 4.62988 13.7297 5.86868 14.0704 7.61217H11.9057C11.667 6.9248 11.0693 6.38952 9.97968 6.38952C8.81522 6.38952 8.02082 7.05553 7.97525 8.10814" fill="#D4D4D8"/>
</g>
</g>
</g>
<defs>
<clipPath id="clip0_2563_126">
<rect width="20" height="20" rx="2" fill="white"/>
</clipPath>
<clipPath id="clip1_2563_126">
<rect width="20" height="20" fill="white"/>
</clipPath>
</defs>
</svg>
