<svg width="20" height="20" viewBox="0 0 20 20" fill="none" xmlns="http://www.w3.org/2000/svg">
<g clip-path="url(#clip0_2563_104)">
<rect width="20" height="20" rx="2" fill="#61616B"/>
<mask id="mask0_2563_104" style="mask-type:luminance" maskUnits="userSpaceOnUse" x="-2" y="-2" width="24" height="24">
<path d="M-2 -2H22V22H-2V-2Z" fill="white"/>
</mask>
<g mask="url(#mask0_2563_104)">
<path d="M10 5.5C8.1333 5.5 6.96703 6.43297 6.5 8.29967C7.19978 7.36659 8.0167 7.0167 8.94978 7.25C9.48255 7.38278 9.86328 7.76909 10.2849 8.19719C10.9711 8.89358 11.7654 9.69978 13.5 9.69978C15.3666 9.69978 16.533 8.7667 17 6.89956C16.3001 7.83319 15.4833 8.18308 14.5501 7.94978C14.0175 7.81689 13.6372 7.43069 13.215 7.00259C12.5292 6.3062 11.7351 5.5 10 5.5ZM6.5 9.69978C4.63341 9.69978 3.46703 10.6329 3 12.5C3.69978 11.5664 4.51659 11.2165 5.44978 11.4498C5.98255 11.5827 6.36328 11.9689 6.78492 12.397C7.47114 13.0934 8.26542 13.8996 10 13.8996C11.8666 13.8996 13.033 12.9666 13.5 11.0999C12.8001 12.033 11.9833 12.3829 11.0501 12.1496C10.5175 12.0168 10.1372 11.6305 9.71497 11.2024C9.02919 10.506 8.23513 9.69978 6.5 9.69978Z" fill="white"/>
</g>
</g>
<defs>
<clipPath id="clip0_2563_104">
<rect width="20" height="20" rx="2" fill="white"/>
</clipPath>
</defs>
</svg>
