<svg width="20" height="21" viewBox="0 0 20 21" fill="none" xmlns="http://www.w3.org/2000/svg">
<g clip-path="url(#clip0_3381_896)">
<rect y="0.5" width="20" height="20" rx="2" fill="#61616B"/>
<mask id="mask0_3381_896" style="mask-type:luminance" maskUnits="userSpaceOnUse" x="-2" y="-2" width="24" height="25">
<path d="M-2 -1.5H22V22.5H-2V-1.5Z" fill="white"/>
</mask>
<g mask="url(#mask0_3381_896)">
<path d="M3.49572 10.5C3.49572 13.0788 4.99572 15.3 7.16494 16.3558L4.06111 7.85195C3.6884 8.685 3.49574 9.58739 3.49572 10.5ZM10.0034 17.0077C10.7592 17.0077 11.4861 16.875 12.1669 16.6385L12.1207 16.552L10.1188 11.0712L8.16878 16.7423C8.74574 16.9154 9.36305 17.0077 10.0034 17.0077ZM10.8976 7.44805L13.2515 14.4462L13.9034 12.277C14.1804 11.377 14.3938 10.7308 14.3938 10.1712C14.3938 9.36348 14.1054 8.80964 13.8631 8.38268C13.5284 7.84036 13.2226 7.38464 13.2226 6.85384C13.2226 6.25385 13.6726 5.7 14.3188 5.7H14.3996C13.2005 4.59918 11.6312 3.9896 10.0034 3.9923C8.9256 3.99211 7.86469 4.25984 6.91601 4.77143C5.9674 5.28301 5.16078 6.0224 4.5688 6.92305L4.98419 6.93464C5.66495 6.93464 6.71494 6.84805 6.71494 6.84805C7.07262 6.8308 7.11305 7.3442 6.7611 7.38464C6.7611 7.38464 6.40921 7.4308 6.0111 7.44805L8.38805 14.498L9.81305 10.2288L8.79762 7.44805C8.57024 7.4355 8.34319 7.41627 8.1169 7.39036C7.76494 7.36732 7.80537 6.8308 8.15726 6.84805C8.15726 6.84805 9.23037 6.93464 9.87074 6.93464C10.5515 6.93464 11.6015 6.84805 11.6015 6.84805C11.9534 6.8308 11.9996 7.3442 11.6476 7.38464C11.6476 7.38464 11.2957 7.425 10.8976 7.44805ZM13.2746 16.125C14.2591 15.5525 15.0761 14.7318 15.644 13.7447C16.212 12.7576 16.511 11.6388 16.5111 10.5C16.5111 9.3692 16.2226 8.30768 15.7149 7.37884C15.818 8.40075 15.6633 9.4322 15.2649 10.3788L13.2746 16.125ZM10.0034 18C8.01428 18 6.10662 17.2098 4.70012 15.8033C3.2936 14.3968 2.50342 12.4891 2.50342 10.5C2.50342 8.51086 3.2936 6.6032 4.70012 5.1967C6.10662 3.79018 8.01428 3 10.0034 3C11.9926 3 13.9002 3.79018 15.3067 5.1967C16.7133 6.6032 17.5034 8.51086 17.5034 10.5C17.5034 12.4891 16.7133 14.3968 15.3067 15.8033C13.9002 17.2098 11.9926 18 10.0034 18Z" fill="white"/>
</g>
</g>
<defs>
<clipPath id="clip0_3381_896">
<rect y="0.5" width="20" height="20" rx="2" fill="white"/>
</clipPath>
</defs>
</svg>
