<svg width="24" height="24" viewBox="0 0 24 24" fill="none" xmlns="http://www.w3.org/2000/svg">
<g clip-path="url(#clip0_2102_938)">
<path d="M8.33468 21.9999C10.1747 21.9999 11.668 20.5066 11.668 18.6666V15.3333H8.33468C6.49468 15.3333 5.00134 16.8266 5.00134 18.6666C5.00134 20.5066 6.49468 21.9999 8.33468 21.9999Z" fill="#0ACF83"/>
<path d="M5.00134 12.0001C5.00134 10.1601 6.49468 8.66675 8.33468 8.66675H11.668V15.3334H8.33468C6.49468 15.3334 5.00134 13.8401 5.00134 12.0001Z" fill="#A259FF"/>
<path d="M5.00159 5.33333C5.00159 3.49333 6.49492 2 8.33492 2H11.6683V8.66667H8.33492C6.49492 8.66667 5.00159 7.17333 5.00159 5.33333Z" fill="#F24E1E"/>
<path d="M11.668 2H15.0013C16.8413 2 18.3346 3.49333 18.3346 5.33333C18.3346 7.17333 16.8413 8.66667 15.0013 8.66667H11.668V2Z" fill="#FF7262"/>
<path d="M18.3346 12.0001C18.3346 13.8401 16.8413 15.3334 15.0013 15.3334C13.1613 15.3334 11.668 13.8401 11.668 12.0001C11.668 10.1601 13.1613 8.66675 15.0013 8.66675C16.8413 8.66675 18.3346 10.1601 18.3346 12.0001Z" fill="#1ABCFE"/>
</g>
<defs>
<clipPath id="clip0_2102_938">
<rect width="13.336" height="20" fill="white" transform="translate(5 2)"/>
</clipPath>
</defs>
</svg>
