<svg width="24" height="24" viewBox="0 0 24 24" fill="none" xmlns="http://www.w3.org/2000/svg">
<g clip-path="url(#clip0_2100_904)">
<rect x="2" y="2" width="20" height="20" rx="2" fill="#F29B30"/>
<mask id="mask0_2100_904" style="mask-type:luminance" maskUnits="userSpaceOnUse" x="0" y="0" width="24" height="24">
<path d="M0 0H24V24H0V0Z" fill="white"/>
</mask>
<g mask="url(#mask0_2100_904)">
<path d="M8.04021 19.4994C8.19225 18.7835 8.3371 18.091 8.47596 17.4212C8.59149 16.8638 8.72018 16.2455 8.86323 15.5673L8.95062 15.1523L9.65692 11.7387H12.3648L12.8395 9.47987H10.0095L10.0987 9.03313L10.1974 8.53616C10.3028 8.02065 10.4943 7.63432 10.7714 7.37597C11.0486 7.11881 11.4311 6.98963 11.9189 6.98963C12.196 6.98963 12.4696 7.02312 12.7401 7.0901C13.0107 7.15708 13.268 7.25098 13.5122 7.37118L14.2245 4.96169C13.9862 4.85888 13.7395 4.77665 13.4871 4.71589C13.1955 4.64349 12.8997 4.58976 12.6012 4.55502C12.2929 4.5184 11.9827 4.50002 11.6723 4.5C11.1838 4.5 10.7158 4.55861 10.2675 4.67582C9.82345 4.79064 9.40647 4.99183 9.04041 5.26788C8.67109 5.54597 8.34967 5.92214 8.07553 6.39758C7.80199 6.87302 7.59249 7.46507 7.44704 8.17435L7.14537 9.63536L7.17709 9.47987H5.53704L5.06238 11.7387H6.70483L6.68088 11.8541C6.63659 12.0622 6.59349 12.2691 6.551 12.473L6.48695 12.778L6.19964 14.1583L5.99254 15.1624C5.83742 15.9141 5.68079 16.6654 5.52267 17.4164C5.37628 18.1102 5.23263 18.8045 5.09171 19.4994H8.04021ZM16.4631 9.46013L16.1806 10.1861L17.5034 11.1161C17.5753 11.1657 17.613 11.2584 17.6028 11.3523L17.598 11.3798L17.5088 11.7871C17.4867 11.8894 17.4089 11.9635 17.3173 11.9701L16.1495 12.0478L17.1479 12.744C17.2197 12.7936 17.2574 12.8869 17.2467 12.9802L17.2425 13.0083L17.1533 13.415C17.1311 13.5178 17.0533 13.592 16.9617 13.598L15.794 13.6763L16.7924 14.3718C16.8642 14.4215 16.9019 14.5148 16.8911 14.608L16.8863 14.6362L16.7977 15.0428C16.775 15.1457 16.6972 15.2198 16.6062 15.2258L15.4384 15.3048L16.4368 16.0003C16.508 16.0499 16.5463 16.1426 16.5356 16.2365L16.5308 16.2646L16.4422 16.6713C16.4194 16.7741 16.3416 16.8483 16.2507 16.8543L15.0823 16.9326L16.0813 17.6281C16.1525 17.6778 16.1902 17.7711 16.18 17.8644L16.1752 17.8925L16.0866 18.2991C16.0639 18.402 15.9861 18.4762 15.8945 18.4821L14.2569 18.6269L14.0533 19.5H12.7455L13.1495 17.8955C13.1723 17.7932 13.2501 17.719 13.3417 17.7131L14.5088 17.6341L13.5104 16.9386C13.4745 16.9115 13.4465 16.8753 13.4291 16.8338C13.4118 16.7923 13.4058 16.747 13.4117 16.7024L13.4165 16.6749L13.5057 16.2676C13.5278 16.1653 13.6056 16.0912 13.6972 16.0846L14.8644 16.0063L13.8666 15.3107C13.8307 15.2836 13.8026 15.2475 13.7853 15.206C13.7679 15.1645 13.7619 15.1191 13.7678 15.0745L13.772 15.0464L13.8612 14.6397C13.8834 14.5369 13.9612 14.4627 14.0527 14.4567L15.2205 14.3778L14.2221 13.6829C14.1862 13.6558 14.1582 13.6196 14.1408 13.5781C14.1235 13.5366 14.1174 13.4912 14.1234 13.4467L14.1282 13.4185L14.2167 13.0119C14.2389 12.909 14.3167 12.8349 14.4083 12.8289L15.5761 12.7499L14.5777 12.0544C14.5418 12.0273 14.5137 11.9911 14.4964 11.9496C14.479 11.9081 14.473 11.8628 14.4789 11.8182L14.4837 11.7901L14.5723 11.3834C14.595 11.2806 14.6729 11.2064 14.7638 11.2004L15.9322 11.1221L14.9326 10.4266C14.8967 10.3995 14.8686 10.3633 14.8512 10.3218C14.8339 10.2803 14.8279 10.2349 14.8339 10.1903L14.8387 10.1622L15.0206 9.51575L16.4625 9.46013H16.4631ZM17.4687 4.5903C18.005 4.5903 18.4025 4.77271 18.6599 5.13751C18.919 5.50231 18.9962 5.93888 18.8933 6.44721C18.7766 7.0303 18.536 7.42321 18.1714 7.62774C17.8063 7.83107 17.3526 7.93394 16.8097 7.93394C16.28 7.93394 15.8813 7.77486 15.6132 7.4567C15.345 7.13855 15.269 6.68523 15.3857 6.09616C15.4953 5.56092 15.7359 5.17578 16.1076 4.94195C16.4787 4.70752 16.9324 4.5903 17.4687 4.5903Z" fill="black"/>
</g>
</g>
<defs>
<clipPath id="clip0_2100_904">
<rect x="2" y="2" width="20" height="20" rx="2" fill="white"/>
</clipPath>
</defs>
</svg>
