<svg width="24" height="24" viewBox="0 0 24 24" fill="none" xmlns="http://www.w3.org/2000/svg">
<path fill-rule="evenodd" clip-rule="evenodd" d="M21.9887 6.52452C21.9961 6.55119 21.9999 6.57868 22 6.6063V10.8992C22 10.9543 21.985 11.0085 21.9566 11.0561C21.9282 11.1038 21.8873 11.1434 21.8381 11.1708L18.1288 13.2453V17.3571C18.1288 17.469 18.0676 17.5722 17.9677 17.6286L10.2249 21.9583C10.2072 21.9681 10.1879 21.9744 10.1685 21.981C10.1613 21.9834 10.1544 21.9877 10.1468 21.9896C10.0927 22.0035 10.0358 22.0035 9.98163 21.9896C9.97277 21.9873 9.96472 21.9826 9.95626 21.9794C9.93853 21.9732 9.92001 21.9677 9.90309 21.9583L2.16192 17.6286C2.11274 17.6011 2.07188 17.5616 2.04345 17.5139C2.01503 17.4663 2.00004 17.4121 2 17.3571V4.47821C2 4.45004 2.00403 4.42265 2.01128 4.39605C2.01369 4.38705 2.01933 4.37883 2.02256 4.36983C2.0286 4.3534 2.03424 4.33658 2.0431 4.32132C2.04914 4.31114 2.058 4.30293 2.06525 4.29354C2.07452 4.28102 2.08297 4.26811 2.09385 4.25715C2.10311 4.24815 2.1152 4.2415 2.12567 4.23367C2.13735 4.22428 2.14782 4.21411 2.16111 4.20668L6.0323 2.04181C6.08132 2.01442 6.13687 2 6.19342 2C6.24997 2 6.30552 2.01442 6.35453 2.04181L10.2253 4.20668H10.2261C10.239 4.2145 10.2499 4.22428 10.2616 4.23328C10.272 4.24111 10.2837 4.24815 10.293 4.25676C10.3043 4.26811 10.3123 4.28102 10.322 4.29354C10.3288 4.30293 10.3381 4.31114 10.3437 4.32132C10.353 4.33697 10.3582 4.3534 10.3647 4.36983C10.3679 4.37883 10.3735 4.38705 10.376 4.39644C10.3834 4.4231 10.3872 4.4506 10.3872 4.47821V12.5222L13.6128 10.7181V6.60591C13.6128 6.57852 13.6168 6.55074 13.624 6.52452C13.6269 6.51513 13.6321 6.50692 13.6353 6.49792C13.6418 6.48148 13.6474 6.46466 13.6563 6.4494C13.6623 6.43923 13.6712 6.43101 13.678 6.42162C13.6877 6.4091 13.6957 6.39619 13.707 6.38523C13.7163 6.37623 13.728 6.36958 13.7384 6.36176C13.7505 6.35237 13.761 6.34219 13.7739 6.33476L17.6455 4.1699C17.6945 4.14246 17.75 4.12802 17.8066 4.12802C17.8631 4.12802 17.9187 4.14246 17.9677 4.1699L21.8385 6.33476C21.8522 6.34259 21.8626 6.35237 21.8747 6.36137C21.8848 6.36919 21.8965 6.37623 21.9057 6.38484C21.917 6.39619 21.9251 6.4091 21.9347 6.42162C21.942 6.43101 21.9509 6.43923 21.9565 6.4494C21.9658 6.46466 21.971 6.48148 21.9774 6.49792C21.9811 6.50692 21.9863 6.51513 21.9887 6.52452ZM21.3547 10.7181V7.1482L20.0002 7.90568L18.1288 8.95231V12.5222L21.3551 10.7181H21.3547ZM17.4839 17.1759V13.6037L15.6432 14.6249L10.3868 17.539V21.1449L17.4839 17.1759ZM2.64527 5.02011V17.1759L9.74157 21.1445V17.5394L6.03432 15.5013L6.03311 15.5005L6.0315 15.4997C6.01901 15.4927 6.00854 15.4825 5.99686 15.4739C5.98679 15.4661 5.97511 15.4598 5.96625 15.4512L5.96544 15.45C5.95497 15.4403 5.94772 15.4281 5.93886 15.4172C5.9308 15.4066 5.92113 15.3976 5.91469 15.3866L5.91429 15.3855C5.90704 15.3737 5.90261 15.3597 5.89737 15.3463C5.89213 15.3346 5.88529 15.3237 5.88206 15.3111C5.87804 15.2963 5.87723 15.2802 5.87562 15.265C5.87401 15.2532 5.87079 15.2415 5.87079 15.2298V15.229V6.82423L3.99984 5.77721L2.64527 5.02011ZM6.19382 2.67488L2.9687 4.47821L6.19302 6.28155L9.41773 4.47782L6.19302 2.67488H6.19382ZM7.87103 13.9292L9.74197 12.883V5.02011L8.3874 5.7776L6.51605 6.82423V14.6871L7.87103 13.9292ZM17.8066 4.80296L14.5819 6.6063L17.8066 8.40963L21.0309 6.60591L17.8066 4.80296ZM17.4839 8.95231L15.6126 7.90568L14.258 7.1482V10.7181L16.129 11.7643L17.4839 12.5222V8.95231ZM10.0638 16.9971L14.7937 14.3741L17.1581 13.0633L13.9358 11.2612L10.2257 13.336L6.84432 15.227L10.0638 16.9971Z" fill="#FF2D20"/>
</svg>
