<svg width="22" height="24" viewBox="0 0 22 24" fill="none" xmlns="http://www.w3.org/2000/svg">
<path fill-rule="evenodd" clip-rule="evenodd" d="M2.85718 18.1369C2.10777 18.1369 1.5 17.5439 1.5 16.8128V7.17959C1.5 6.44843 2.10777 5.85547 2.85718 5.85547C3.60659 5.85547 4.21436 6.44843 4.21436 7.17959V16.8128C4.21436 17.5439 3.60659 18.1369 2.85718 18.1369Z" fill="#89C7E8"/>
<path fill-rule="evenodd" clip-rule="evenodd" d="M19.1429 18.1369C18.3935 18.1369 17.7858 17.5439 17.7858 16.8128V7.18716C17.7858 6.456 18.3935 5.86304 19.1429 5.86304C19.8924 5.86304 20.5001 6.456 20.5001 7.18716V16.8128C20.5001 17.5439 19.8924 18.1369 19.1429 18.1369Z" fill="#0BADDC"/>
<path fill-rule="evenodd" clip-rule="evenodd" d="M11 22C10.2506 22 9.64282 21.407 9.64282 20.6759V3.32412C9.64282 2.59296 10.2506 2 11 2C11.7494 2 12.3572 2.59296 12.3572 3.32412V20.6759C12.3572 21.407 11.7494 22 11 22Z" fill="#307FC2"/>
</svg>
