<svg width="24" height="24" viewBox="0 0 24 24" fill="none" xmlns="http://www.w3.org/2000/svg">
<g clip-path="url(#clip0_2102_1005)">
<path d="M11.3458 2.01563C11.3028 2.01954 11.1661 2.03321 11.0431 2.04297C8.20545 2.29881 5.54751 3.82991 3.86408 6.18319C2.92667 7.49166 2.32712 8.97589 2.10058 10.548C2.02051 11.0968 2.01074 11.2589 2.01074 12.0029C2.01074 12.747 2.02051 12.9091 2.10058 13.4579C2.64349 17.2095 5.31315 20.3615 8.93389 21.5294C9.58227 21.7383 10.2658 21.8809 11.0431 21.9668C11.3458 22 12.6542 22 12.9569 21.9668C14.2986 21.8184 15.4352 21.4864 16.5562 20.9142C16.7281 20.8263 16.7613 20.8029 16.7378 20.7833C16.7222 20.7716 15.9898 19.7893 15.111 18.6019L13.5135 16.4439L11.5118 13.4813C10.4103 11.8526 9.50415 10.5207 9.49634 10.5207C9.48853 10.5187 9.48071 11.835 9.47681 13.4423C9.47095 16.2564 9.469 16.3697 9.43384 16.4361C9.38307 16.5318 9.34401 16.5708 9.26199 16.6138C9.19949 16.6451 9.14481 16.6509 8.84992 16.6509H8.51206L8.42222 16.5943C8.36364 16.5572 8.32067 16.5084 8.29138 16.4517L8.25037 16.3638L8.25427 12.4482L8.26013 8.53062L8.32067 8.45445C8.35192 8.41344 8.41832 8.36071 8.46519 8.33533C8.54526 8.29627 8.57651 8.29236 8.91436 8.29236C9.31276 8.29236 9.37916 8.30799 9.48267 8.42126C9.51196 8.4525 10.5958 10.0852 11.8926 12.0518C13.1893 14.0184 14.9626 16.7037 15.8336 18.0219L17.4155 20.4181L17.4956 20.3654C18.2045 19.9045 18.9544 19.2483 19.5481 18.5648C20.8116 17.1138 21.626 15.3444 21.8994 13.4579C21.9795 12.9091 21.9893 12.747 21.9893 12.0029C21.9893 11.2589 21.9795 11.0968 21.8994 10.548C21.3565 6.79641 18.6868 3.64438 15.0661 2.47652C14.4275 2.26951 13.7479 2.12695 12.9862 2.04102C12.7988 2.02149 11.5079 2.00001 11.3458 2.01563ZM15.4352 8.05801C15.529 8.10488 15.6051 8.19471 15.6325 8.28846C15.6481 8.33923 15.652 9.42506 15.6481 11.8721L15.6422 15.3835L15.0231 14.4343L14.4021 13.4852V10.9327C14.4021 9.2825 14.4099 8.35486 14.4216 8.30994C14.4529 8.20057 14.5212 8.11464 14.615 8.06387C14.695 8.02286 14.7243 8.01895 15.031 8.01895C15.32 8.01895 15.3708 8.02286 15.4352 8.05801Z" fill="black"/>
<path d="M17.3179 20.4609C17.2495 20.5039 17.228 20.5332 17.2886 20.5C17.3315 20.4746 17.4018 20.4219 17.3901 20.4199C17.3843 20.4199 17.3511 20.4395 17.3179 20.4609ZM17.1831 20.5488C17.148 20.5762 17.148 20.5781 17.1909 20.5566C17.2144 20.5449 17.2339 20.5312 17.2339 20.5273C17.2339 20.5117 17.2241 20.5156 17.1831 20.5488ZM17.0855 20.6074C17.0503 20.6347 17.0503 20.6367 17.0933 20.6152C17.1167 20.6035 17.1362 20.5898 17.1362 20.5859C17.1362 20.5703 17.1265 20.5742 17.0855 20.6074ZM16.9878 20.666C16.9527 20.6933 16.9527 20.6953 16.9956 20.6738C17.0191 20.6621 17.0386 20.6484 17.0386 20.6445C17.0386 20.6289 17.0288 20.6328 16.9878 20.666ZM16.8394 20.7441C16.7652 20.7832 16.7691 20.7988 16.8433 20.7617C16.8765 20.7441 16.9019 20.7265 16.9019 20.7226C16.9019 20.709 16.8999 20.7109 16.8394 20.7441Z" fill="black"/>
</g>
<defs>
<clipPath id="clip0_2102_1005">
<rect width="20" height="20" fill="white" transform="translate(2 2)"/>
</clipPath>
</defs>
</svg>
