<svg width="24" height="24" viewBox="0 0 24 24" fill="none" xmlns="http://www.w3.org/2000/svg">
<g clip-path="url(#clip0_2102_1027)">
<path d="M20.1412 17.1949L13.2891 2.62915C13.1156 2.26395 12.7561 2.02334 12.3527 2.00244C11.9483 1.97532 11.5624 2.17556 11.3515 2.52195L3.9196 14.5709C3.68888 14.9423 3.69374 15.4139 3.93205 15.7804L7.56557 21.4128C7.84789 21.847 8.38193 22.0436 8.87802 21.8959L19.4225 18.7739C19.7437 18.6798 20.0084 18.451 20.1482 18.1467C20.286 17.8437 20.2836 17.4954 20.1417 17.1944L20.1412 17.1949ZM18.6071 17.8196L9.65952 20.468C9.38657 20.5493 9.12457 20.3124 9.18136 20.0367L12.3781 4.71517C12.4378 4.42849 12.8333 4.38312 12.9583 4.64836L18.8761 17.2273C18.929 17.3407 18.9296 17.4717 18.8778 17.5857C18.826 17.6996 18.7268 17.7851 18.6066 17.8196H18.6071Z" fill="black"/>
</g>
<defs>
<clipPath id="clip0_2102_1027">
<rect width="16.5" height="20" fill="white" transform="translate(3.75 2)"/>
</clipPath>
</defs>
</svg>
