<svg width="24" height="24" viewBox="0 0 24 24" fill="none" xmlns="http://www.w3.org/2000/svg">
<path d="M12 13.8555C13.0355 13.8555 13.875 13.016 13.875 11.9805C13.875 10.9449 13.0355 10.1055 12 10.1055C10.9645 10.1055 10.125 10.9449 10.125 11.9805C10.125 13.016 10.9645 13.8555 12 13.8555Z" fill="#00D8FF"/>
<path d="M12 16.2795C9.74635 16.334 7.49835 16.0302 5.34 15.3795C4.34297 15.0634 3.41305 14.5655 2.59725 13.911C2.28595 13.6873 2.0267 13.399 1.83731 13.0658C1.64791 12.7326 1.53284 12.3623 1.5 11.9805C1.5 10.7407 2.862 9.52571 5.1435 8.73071C7.35955 8.02627 9.67494 7.68486 12 7.71971C14.294 7.68766 16.5784 8.02289 18.7665 8.71271C19.7267 9.01882 20.6251 9.49265 21.42 10.1122C21.726 10.3254 21.9813 10.6032 22.168 10.9261C22.3546 11.249 22.468 11.6089 22.5 11.9805C22.5 13.269 20.9775 14.5747 18.525 15.3862C16.4084 16.0157 14.2079 16.317 12 16.2795ZM12 8.61671C9.77559 8.58697 7.56062 8.91153 5.43825 9.57821C3.33825 10.311 2.397 11.313 2.397 11.9782C2.397 12.6742 3.40875 13.7685 5.63025 14.5282C7.69505 15.1476 9.84496 15.4359 12 15.3825C14.1123 15.4202 16.2179 15.1344 18.2438 14.535C20.55 13.7707 21.6 12.675 21.6 11.9805C21.5622 11.7421 21.4753 11.5142 21.3449 11.3112C21.2145 11.1081 21.0435 10.9343 20.8425 10.8007C20.1313 10.2511 19.3288 9.83114 18.4717 9.56021C16.3785 8.90302 14.1937 8.58451 12 8.61671Z" fill="#00D8FF"/>
<path d="M7.73995 21.3324C7.39008 21.3404 7.04433 21.2555 6.73795 21.0864C5.66395 20.4669 5.29195 18.6804 5.7427 16.3066C6.23969 14.0349 7.1008 11.8586 8.2927 9.86185C9.41075 7.85868 10.8421 6.04729 12.5325 4.49635C13.2773 3.81738 14.1366 3.27576 15.0705 2.8966C15.4082 2.73831 15.7767 2.65625 16.1497 2.65625C16.5227 2.65625 16.8912 2.73831 17.229 2.8966C18.3457 3.5401 18.7155 5.5111 18.1942 8.04085C17.6819 10.1893 16.8431 12.2464 15.7072 14.1406C14.6285 16.1201 13.2422 17.9157 11.6002 19.4604C10.8283 20.1659 9.93245 20.7226 8.95795 21.1021C8.56782 21.2469 8.15602 21.3247 7.73995 21.3324ZM9.0697 10.3074C7.93277 12.2193 7.10745 14.3001 6.6247 16.4716C6.20995 18.6579 6.6082 19.9726 7.1872 20.3071C7.7872 20.6544 9.2437 20.3251 11.0122 18.7801C12.5797 17.3003 13.9029 15.5815 14.9325 13.6876C16.0207 11.8767 16.8252 9.90996 17.3182 7.8556C17.8087 5.47435 17.385 4.01635 16.7835 3.66985C16.558 3.58347 16.3171 3.5448 16.076 3.55629C15.8348 3.56778 15.5987 3.62918 15.3825 3.7366C14.5512 4.07961 13.787 4.56657 13.125 5.1751C11.51 6.66069 10.1427 8.3948 9.07495 10.3119L9.0697 10.3074Z" fill="#00D8FF"/>
<path d="M16.2578 21.342C15.2415 21.342 13.9508 20.727 12.6068 19.5712C10.8868 18.0062 9.43127 16.1733 8.29653 14.1435C7.11958 12.1743 6.26529 10.0294 5.76603 7.79023C5.54952 6.8051 5.50939 5.78938 5.64753 4.79023C5.67947 4.41959 5.79233 4.06046 5.97816 3.73818C6.16399 3.4159 6.41825 3.13831 6.72303 2.92498C7.83828 2.27923 9.73053 2.94298 11.6618 4.65748C13.2672 6.17412 14.6306 7.92801 15.7043 9.85798C16.8805 11.7812 17.7438 13.8791 18.2618 16.0732C18.4876 17.0945 18.5225 18.1488 18.3645 19.1827C18.327 19.564 18.2074 19.9327 18.014 20.2635C17.8206 20.5942 17.5579 20.8792 17.244 21.099C16.9427 21.266 16.6023 21.3499 16.2578 21.342ZM9.07278 13.692C10.1614 15.6318 11.5518 17.386 13.1918 18.8887C14.8785 20.34 16.2165 20.652 16.7918 20.3137C17.3918 19.965 17.8343 18.5415 17.3783 16.2382C16.8787 14.1434 16.0507 12.1409 14.925 10.305C13.9004 8.45783 12.5991 6.77838 11.0663 5.32498C9.24828 3.71098 7.77378 3.35023 7.17303 3.69823C6.98579 3.8504 6.83213 4.03973 6.72176 4.25427C6.61139 4.46882 6.5467 4.70392 6.53178 4.94473C6.41254 5.8358 6.45138 6.74091 6.64653 7.61848C7.12676 9.75984 7.94609 11.8107 9.07353 13.6935L9.07278 13.692Z" fill="#00D8FF"/>
</svg>
