<svg width="24" height="24" viewBox="0 0 24 24" fill="none" xmlns="http://www.w3.org/2000/svg">
<g clip-path="url(#clip0_2102_1022)">
<path d="M20.75 2H3.25C2.55964 2 2 2.55964 2 3.25V20.75C2 21.4404 2.55964 22 3.25 22H20.75C21.4404 22 22 21.4404 22 20.75V3.25C22 2.55964 21.4404 2 20.75 2Z" fill="#F03E2F"/>
<path d="M8.15989 7.18164C8.15989 8.90023 9.2402 9.92273 11.4027 10.462L13.6943 10.984C15.741 11.4457 16.9874 12.5929 16.9874 14.4618C17.0033 15.276 16.7338 16.0707 16.2243 16.713C16.2243 14.8484 15.2424 13.841 12.8743 13.2352L10.6243 12.7326C8.82255 12.3287 7.43177 11.3855 7.43177 9.35555C7.42239 8.57164 7.67849 7.80695 8.15989 7.18164Z" fill="white"/>
<path d="M14.8159 14.0042C15.7934 14.6186 16.222 15.478 16.222 16.7109C15.413 17.7291 13.9917 18.3005 12.3211 18.3005C9.50907 18.3005 7.5411 16.9408 7.10376 14.5778H9.80423C10.1519 15.6627 11.0725 16.1653 12.3014 16.1653C13.8014 16.1653 14.7986 15.3791 14.8181 14" fill="#F9B1AB"/>
<path d="M9.56381 9.72957C9.1174 9.46895 8.75131 9.09441 8.50412 8.64598C8.25693 8.19738 8.13803 7.69145 8.1599 7.18176C8.94053 6.17223 10.2985 5.55566 11.9538 5.55566C14.8183 5.55566 16.4757 7.04223 16.8846 9.13441H14.2869C14.0005 8.30957 13.2832 7.66723 11.9757 7.66723C10.5783 7.66723 9.62506 8.46645 9.57037 9.72957" fill="#F9B1AB"/>
</g>
<defs>
<clipPath id="clip0_2102_1022">
<rect width="20" height="20" fill="white" transform="translate(2 2)"/>
</clipPath>
</defs>
</svg>
