<svg width="24" height="24" viewBox="0 0 24 24" fill="none" xmlns="http://www.w3.org/2000/svg">
<g clip-path="url(#clip0_2098_769)">
<path d="M12.0007 4.80029C8.80067 4.80029 6.80136 6.39967 6.00073 9.59973C7.20036 8.00017 8.60079 7.40036 10.2004 7.80029C11.1137 8.02792 11.7664 8.69017 12.4892 9.42404C13.6655 10.6179 15.0272 11.9999 18.0007 11.9999C21.2006 11.9999 23.2001 10.4004 24.0007 7.19954C22.8009 8.80004 21.4007 9.39986 19.8009 8.99992C18.8878 8.77211 18.2359 8.11004 17.5121 7.37617C16.3365 6.18236 14.9752 4.80029 12.0007 4.80029ZM6.00073 11.9999C2.80086 11.9999 0.801357 13.5995 0.000732422 16.8003C1.20036 15.1998 2.60061 14.6 4.20036 14.9999C5.11367 15.2277 5.76636 15.8898 6.48917 16.6237C7.66554 17.8175 9.02717 19.1995 12.0007 19.1995C15.2006 19.1995 17.2001 17.6002 18.0007 14.4001C16.8009 15.9997 15.4007 16.5995 13.8009 16.1995C12.8878 15.9719 12.2359 15.3097 11.5121 14.5758C10.3365 13.382 8.97523 11.9999 6.00073 11.9999Z" fill="#38BDF8"/>
</g>
<defs>
<clipPath id="clip0_2098_769">
<rect width="24" height="24" fill="white"/>
</clipPath>
</defs>
</svg>
